<svg width="231" height="80" viewBox="0 0 231 80" fill="none" xmlns="http://www.w3.org/2000/svg">
<path d="M44.2598 0C49.1054 1.54848 54.2316 2.52606 58.7437 4.7503C73.1057 11.8285 82.6137 27.5715 79.829 46.0206C77.1219 63.9552 63.3085 77.103 45.6198 79.5067C45.1529 79.5703 44.7127 79.8315 44.2598 80C41.6327 80 39.005 80 36.378 80C35.9226 79.8333 35.48 79.5752 35.0107 79.5133C18.6995 77.3588 5.64828 65.9594 1.43511 50.0885C0.820323 47.7721 0.471701 45.3848 0 43.0303C0 40.6061 0 38.1818 0 35.7576C0.169764 35.3073 0.419559 34.8703 0.496559 34.4042C2.88477 19.9321 10.68 9.50485 24.0828 3.53939C27.7734 1.89697 31.8647 1.15515 35.7717 0C38.6013 0 41.4302 0 44.2598 0ZM29.109 23.7115C29.109 28.66 29.106 33.3812 29.1115 38.103C29.1127 39.2121 29.0514 40.3315 29.1757 41.4285C29.896 47.7824 36.0506 52.0491 42.6538 50.8133C48.63 49.6952 52.5207 43.2927 50.9382 37.1806C49.3382 31.0024 43.1279 27.5939 37.037 29.5436C36.5101 29.7121 35.9645 29.8224 35.146 30.0315C35.146 27.8 35.146 25.8188 35.146 23.7115C33.1227 23.7115 31.3354 23.7115 29.109 23.7115ZM27.6424 51.2909C27.6424 46.583 28.0383 42.5315 27.5539 38.5879C26.7354 31.9242 21.1174 28 14.4899 29.1612C10.1446 29.9218 7.31561 32.6424 6.01449 36.857C4.69518 41.1309 5.81744 44.8891 8.9417 47.9188C11.9926 50.877 15.6565 51.8436 19.7926 50.2836C20.3007 50.0921 20.8961 49.8782 21.3981 49.9685C23.4044 50.3279 25.3906 50.803 27.6424 51.2909ZM74.4099 38.5661C74.3099 33.0418 69.3515 28.7958 63.3625 29.0049C56.957 29.2285 52.4273 34.2733 52.7596 40.8133C53.0736 46.997 58.3145 51.1594 65.0359 50.9739C69.2394 50.8582 75.4327 45.5661 74.245 41.3873C71.5645 41.3491 68.9199 40.5994 66.8451 43.6461C65.4312 45.7224 61.8637 45.1855 60.1412 43.2358C58.4497 41.3218 58.4945 38.4661 60.2449 36.6285C62.0741 34.7079 65.4761 34.297 66.9548 36.4455C69.0617 39.5067 71.7179 38.6127 74.4099 38.5661Z" fill="#C4C4C4"/>
<path d="M231 47.8786C227.76 55.9774 221.715 58.735 211.786 56.7714C210.083 56.4344 208.295 56.5247 205.997 56.3847C205.566 54.2659 205.022 51.5944 204.477 48.9235C204.682 48.7562 204.886 48.5883 205.09 48.4211C206.94 52.4429 209.935 55.1374 214.178 55.3592C216.971 55.5053 220.125 55.1756 222.578 53.9671C226.811 51.8817 226.893 46.7441 222.928 44.1774C219.64 42.0489 216.004 40.4665 212.604 38.5005C209.688 36.8138 206.947 34.7944 206.155 31.2623C204.909 25.7023 208.098 20.9229 213.911 20.0489C216.752 19.6217 219.73 19.9798 222.635 20.1611C224.608 20.2847 226.561 20.7192 228.792 21.0544C228.792 23.0665 228.792 25.332 228.792 27.9653C228.395 27.5889 228.086 27.4156 227.955 27.1532C225.488 22.1841 219.775 19.7701 214.792 22.0132C213.262 22.7023 211.4 24.5114 211.269 25.952C211.122 27.5477 212.376 29.8605 213.749 30.8774C216.306 32.772 219.386 33.9647 222.257 35.4308C226.322 37.5065 229.771 40.1453 231 44.8483C231 45.8586 231 46.8683 231 47.8786Z" fill="#C4C4C4"/>
<path d="M182.059 38.1274C179.432 44.9711 177.01 51.2796 174.589 57.5887C174.285 57.5984 173.981 57.6087 173.677 57.6184C173.163 56.6474 172.538 55.719 172.152 54.6996C168.549 45.1917 165.04 35.6487 161.373 26.1656C160.615 24.2068 159.318 22.4565 158.252 20.5777C161.665 20.5777 165.414 20.5777 168.523 20.5777C168.166 21.8002 167.117 23.3681 167.487 24.4517C170.117 32.1577 173.037 39.7644 176.117 48.0826C177.815 43.4862 179.33 39.5723 180.67 35.6002C180.922 34.8517 180.604 33.8281 180.333 33.0026C179.578 30.7068 178.673 28.4608 177.895 26.1717C177.019 23.5941 175.789 21.4038 172.792 20.6196C177.504 20.6196 182.217 20.6196 186.954 20.6196C186.908 20.7759 186.881 21.0511 186.814 21.062C182.459 21.7584 182.315 21.9699 183.857 26.2481C186.412 33.3402 189.006 40.4184 191.916 48.419C194.6 40.0705 197.096 32.6008 199.371 25.065C200.164 22.4396 198.963 20.7923 196.012 20.5244C198.895 20.5244 201.778 20.5244 204.233 20.5244C203.113 22.9432 201.72 25.4105 200.797 28.0414C197.662 36.9693 194.717 45.9632 191.625 54.9056C191.306 55.8274 190.491 56.5777 189.907 57.4081C189.385 56.6293 188.695 55.9153 188.369 55.062C186.295 49.6341 184.302 44.1765 182.059 38.1274Z" fill="#C4C4C4"/>
<path d="M91.0007 26.8671C91.0007 35.9635 90.8879 44.3913 91.1462 52.8077C91.1777 53.8386 93.11 54.9483 94.339 55.7495C94.9744 56.1641 95.9996 55.9822 96.8248 56.6501C92.4103 56.6501 87.9958 56.6501 83.582 56.6501C89.7978 55.9489 88.4021 51.2889 88.4245 47.4422C88.4621 40.9828 88.4348 34.5228 88.4348 28.0628C88.4348 23.3035 87.6866 22.3398 82.9605 20.5235C86.545 20.5235 90.1349 20.4119 93.7084 20.6101C94.4942 20.6538 95.2951 21.7253 95.9596 22.4428C103.019 30.0671 110.052 37.7156 117.447 45.7422C117.595 44.5938 117.765 43.8744 117.769 43.1544C117.793 38.4107 117.783 33.6665 117.782 28.9228C117.78 22.475 117.78 22.475 111.667 20.621C116.015 20.621 119.905 20.621 123.796 20.621C118.978 21.6889 120.123 25.5156 120.105 28.7301C120.059 37.2083 120.094 45.6871 120.084 54.1653C120.082 55.1295 119.999 56.0932 119.277 57.4501C109.986 47.4004 100.694 37.3513 91.0007 26.8671Z" fill="#C4C4C4"/>
<path d="M127.055 20.5186C135.894 20.5186 144.733 20.5186 153.797 20.5186C153.797 23.0458 153.797 25.4107 153.797 28.3852C153.314 27.4652 152.944 27.0337 152.858 26.5513C152.365 23.7701 150.413 22.6386 147.924 22.4973C144.716 22.3155 141.491 22.4531 138.093 22.4531C138.093 27.1452 138.093 31.644 138.093 36.118C144.776 37.7816 148.31 36.7464 151.247 31.8737C151.247 35.9701 151.247 39.5392 151.247 43.1083C148.582 36.3234 142.85 39.0652 137.81 38.327C137.81 43.1276 137.649 47.4464 137.929 51.7367C137.994 52.7422 139.492 54.3973 140.429 54.4689C143.62 54.7113 147.017 54.9483 150.02 54.0883C152.47 53.3864 154.469 51.1119 156.78 49.4537C156.087 51.581 155.424 53.8519 154.569 56.0489C154.395 56.4961 153.505 56.9198 152.942 56.9228C144.37 56.9713 135.798 56.9507 127.226 56.9295C126.983 56.9289 126.739 56.7458 125.937 56.424C126.924 56.1234 127.41 55.8525 127.899 55.847C130.424 55.8192 131.138 54.3876 131.135 52.107C131.12 43.3258 131.14 34.5446 131.238 25.764C131.271 22.8416 130.669 20.6786 127.055 20.5186Z" fill="#C4C4C4"/>
<path d="M44.9977 40.17C44.9462 42.8464 42.8017 44.9021 40.1012 44.8615C37.5408 44.8233 35.2581 42.5373 35.2545 40.007C35.2508 37.3803 37.7391 35.0379 40.408 35.1567C43.0794 35.2761 45.0498 37.4282 44.9977 40.17Z" fill="#C4C4C4"/>
<path d="M16.3943 35.1301C19.2542 35.0731 21.3836 37.1288 21.4042 39.9676C21.4236 42.6695 19.4343 44.7507 16.7436 44.8428C14.0358 44.9361 11.6743 42.6949 11.6458 40.0046C11.6185 37.4713 13.8497 35.181 16.3943 35.1301Z" fill="#C4C4C4"/>
</svg>
