<svg width="165" height="79" viewBox="0 0 165 79" fill="none" xmlns="http://www.w3.org/2000/svg">
<path d="M52.3489 0.320788C51.9083 0.320788 51.5264 0.320788 51.1445 0.320788C47.4337 0.320788 43.7227 0.307609 40.0119 0.324329C35.8404 0.343015 31.7219 0.804465 27.6882 1.916C20.8077 3.81195 14.82 7.20241 9.94346 12.5213C4.00575 18.9973 0.926045 26.7238 0.165056 35.3977C-0.433228 42.2175 0.585006 48.8564 3.38227 55.1232C8.36191 66.2784 16.8875 73.2696 28.5535 76.4467C32.8083 77.6054 37.1664 78.0015 41.5609 78.0108C48.3967 78.0252 55.2325 78.0356 62.0681 77.9972C63.4557 77.9894 64.8603 77.8595 66.2254 77.6109C70.5421 76.8247 73.8615 74.5851 75.8068 70.5379C76.9559 68.1473 77.3803 65.5648 77.3952 62.9336C77.4305 56.6403 77.4067 50.3466 77.4067 44.0531C77.4067 43.7234 77.4067 43.394 77.4067 43.0643C77.6751 43.1756 77.7534 43.2779 77.819 43.3879C82.9893 52.0388 88.2199 60.6537 93.305 69.355C96.464 74.7606 100.749 78.3849 107.128 78.927C110.77 79.2366 114.068 78.2187 116.83 75.7092C120.001 72.8284 121.098 69.0696 121.143 64.9464C121.208 58.9814 121.16 53.0152 121.16 47.0494C121.16 45.7229 121.16 44.3961 121.16 43.0696C121.402 43.1247 121.468 43.2183 121.526 43.3161C123.676 46.8932 125.823 50.4725 127.975 54.048C131.22 59.4391 134.474 64.8249 137.714 70.2189C140.202 74.3597 143.587 77.3591 148.337 78.5295C152.269 79.498 156.032 79.0183 159.411 76.6703C163.386 73.9081 164.962 69.8506 164.973 65.174C165.018 43.9656 164.993 22.757 164.99 1.54837C164.99 1.16875 164.957 0.789122 164.939 0.409892C161.693 0.409892 158.559 0.409892 155.343 0.409892C155.343 0.952381 155.343 1.40675 155.343 1.86132C155.343 21.9881 155.343 42.1151 155.343 62.2418C155.343 62.5697 155.35 62.8976 155.341 63.2251C155.273 65.7953 154.081 67.6087 152.099 68.162C150.24 68.6811 148.344 67.7611 146.971 65.6439C146.207 64.4671 145.469 63.2733 144.733 62.0788C139.204 53.109 133.673 44.1404 128.154 35.165C124.652 29.47 121.168 23.7635 117.675 18.0624C116.823 16.6714 115.987 15.2693 115.108 13.896C114.579 13.0707 113.777 12.7388 112.831 12.9916C111.923 13.2339 111.614 14.0085 111.484 14.847C111.419 15.2638 111.454 15.6973 111.454 16.1234C111.453 31.661 111.453 47.1987 111.453 62.7363C111.453 63.064 111.473 63.3941 111.443 63.7192C111.266 65.6242 110.59 67.2352 108.697 67.9999C106.762 68.7814 104.707 67.9842 103.373 65.8746C100.565 61.4354 97.8036 56.9662 95.0364 52.501C91.0496 46.0677 87.0702 39.6296 83.0961 33.188C80.0647 28.2739 77.0473 23.3512 74.0221 18.4332C73.082 16.9049 72.1583 15.3653 71.1846 13.8588C70.7025 13.1129 69.9732 12.7825 69.0752 12.9682C68.2324 13.1424 67.8355 13.7542 67.6806 14.5394C67.5867 15.0158 67.533 15.5087 67.5328 15.9942C67.5253 31.6301 67.5291 47.2661 67.5246 62.9021C67.5238 65.9647 65.2695 68.235 62.2271 68.2377C54.4473 68.2446 46.6669 68.3017 38.888 68.2192C33.3583 68.1606 28.075 66.9738 23.2346 64.1354C17.7491 60.9188 13.8496 56.3024 11.6242 50.3563C8.64044 42.3839 8.84651 34.4028 12.2251 26.5823C14.7465 20.7461 18.8456 16.3283 24.4669 13.3557C28.8836 11.0201 33.6281 10.1178 38.5534 10.0506C42.7518 9.99314 46.9515 10.0386 51.1508 10.0386C51.5319 10.0386 51.9127 10.0386 52.3489 10.0386C52.3489 6.78207 52.3489 3.6483 52.3489 0.320788ZM52.405 22.2334C52.405 19.2208 52.3823 16.3744 52.4206 13.5286C52.4306 12.7949 52.2159 12.5748 51.4838 12.5813C47.6757 12.6145 43.8655 12.5303 40.0594 12.621C37.6979 12.6773 35.3141 12.8028 32.9888 13.1912C26.1981 14.326 20.7768 17.765 16.8498 23.4806C13.2376 28.7375 11.8758 34.6388 12.1928 40.9597C12.4247 45.5793 13.6965 49.9151 16.1798 53.8183C21.1673 61.6569 28.6229 65.2322 37.5786 65.5607C45.7705 65.861 53.9816 65.638 62.1842 65.6421C62.4426 65.6423 62.7078 65.6343 62.9586 65.5782C64.3312 65.2712 64.9845 64.2603 64.9847 62.4389C64.9867 47.0329 64.9859 31.6268 64.9861 16.2208C64.9861 15.8931 64.9744 15.5646 64.9908 15.2375C65.1117 12.8112 66.4122 10.9705 68.3533 10.468C70.2974 9.96482 72.3554 10.8425 73.5281 12.7278C75.2337 15.4696 76.9074 18.2316 78.5999 20.9818C82.5828 27.4539 86.562 33.9282 90.5554 40.3936C93.933 45.8619 97.3256 51.321 100.717 56.7804C102.37 59.4399 104.029 62.0955 105.699 64.7434C106.135 65.4342 106.797 65.8066 107.605 65.6331C108.457 65.45 108.731 64.7184 108.847 63.9456C108.905 63.5601 108.875 63.1606 108.875 62.7674C108.877 52.8683 108.876 42.9689 108.876 33.0698C108.876 27.2023 108.872 21.3349 108.878 15.4676C108.881 13.156 110.038 11.2744 111.843 10.5994C114.015 9.7872 116.302 10.7819 117.673 13.1124C118.516 14.5463 119.378 15.9698 120.249 17.3874C124.515 24.3341 128.784 31.2796 133.06 38.2209C138.361 46.8281 143.675 55.4279 148.972 64.0385C149.563 64.9995 150.181 65.886 151.48 65.6148C152.389 65.4252 152.802 64.5247 152.802 62.9476C152.803 42.4608 152.802 21.9739 152.802 1.4872C152.802 1.13669 152.802 0.786369 152.802 0.394746C149.518 0.394746 146.351 0.394746 143.07 0.394746C143.07 12.5632 143.07 24.6584 143.07 36.7537C142.359 35.913 141.845 35.0232 141.332 34.1329C138.4 29.0454 135.485 23.9474 132.531 18.8732C130.349 15.1267 128.256 11.3165 125.867 7.70773C123.324 3.8686 119.852 1.11387 115.195 0.284989C110.27 -0.59149 106.101 0.909501 102.749 4.63847C100.229 7.44081 99.1914 10.8212 99.1773 14.5376C99.1507 21.5845 99.1691 28.6313 99.1689 35.6784C99.1689 36.0204 99.1689 36.3625 99.1689 36.7045C98.1138 35.2643 97.2694 33.7739 96.4127 32.2909C92.5308 25.5699 88.634 18.8577 84.7662 12.1287C82.9541 8.97642 81.1009 5.86035 78.2097 3.55664C74.3137 0.451591 69.9577 -0.876307 65.092 0.608358C59.1459 2.42269 55.3442 7.76103 55.3393 14.0437C55.3294 26.7948 55.3364 39.5456 55.3358 52.2967C55.3358 52.6572 55.3569 53.0205 55.3206 53.3777C55.162 54.931 54.0246 56.0528 52.4753 56.0418C47.4673 56.0066 42.4547 56.04 37.4539 55.8165C33.9545 55.6602 30.7384 54.3895 27.9257 52.2396C21.0389 46.9758 19.923 37.2504 24.3812 30.0914C27.69 24.7782 32.696 22.3848 38.8054 22.2507C42.9049 22.1606 47.0077 22.2336 51.1092 22.2334C51.4953 22.2334 51.8813 22.2334 52.405 22.2334Z" fill="white"/>
<path d="M52.3489 0.32056C52.3489 3.64807 52.3489 6.78184 52.3489 10.038C51.9129 10.038 51.5319 10.038 51.1508 10.038C46.9517 10.038 42.752 9.99252 38.5534 10.05C33.6281 10.1172 28.8836 11.0193 24.4669 13.355C18.8456 16.3277 14.7463 20.7457 12.2251 26.5817C8.84631 34.4022 8.64044 42.3833 11.6242 50.3556C13.8498 56.3018 17.7491 60.9182 23.2346 64.1348C28.075 66.9731 33.3583 68.16 38.888 68.2186C46.6669 68.301 54.4475 68.2442 62.2271 68.2371C65.2693 68.2344 67.5236 65.9643 67.5246 62.9015C67.5291 47.2655 67.5253 31.6295 67.5328 15.9935C67.533 15.5081 67.5869 15.0152 67.6806 14.5388C67.8353 13.7536 68.2324 13.1418 69.0753 12.9676C69.973 12.7819 70.7025 13.1121 71.1846 13.8582C72.1581 15.3649 73.082 16.9042 74.0221 18.4326C77.0473 23.3506 80.0647 28.2733 83.0961 33.1874C87.07 39.629 91.0494 46.067 95.0364 52.5004C97.8036 56.9656 100.565 61.4348 103.373 65.874C104.707 67.9836 106.762 68.7808 108.697 67.9993C110.59 67.2345 111.266 65.6236 111.443 63.7186C111.473 63.3935 111.453 63.0634 111.453 62.7357C111.453 47.1981 111.453 31.6604 111.454 16.1228C111.454 15.6967 111.419 15.2632 111.484 14.8464C111.614 14.0081 111.923 13.2335 112.831 12.991C113.777 12.7382 114.579 13.0698 115.108 13.8954C115.987 15.2687 116.823 16.6708 117.675 18.0618C121.168 23.7628 124.652 29.4692 128.154 35.1644C133.673 44.1398 139.204 53.1084 144.733 62.0781C145.469 63.2725 146.207 64.4664 146.971 65.6433C148.344 67.7605 150.24 68.6805 152.1 68.1614C154.081 67.6081 155.273 65.7947 155.341 63.2245C155.35 62.897 155.343 62.5689 155.343 62.2412C155.343 42.1144 155.343 21.9875 155.343 1.86069C155.343 1.40632 155.343 0.951759 155.343 0.40927C158.559 0.40927 161.693 0.40927 164.939 0.40927C164.957 0.788698 164.99 1.16813 164.99 1.54775C164.993 22.7564 165.018 43.965 164.973 65.1734C164.962 69.85 163.386 73.9075 159.411 76.6697C156.032 79.0176 152.269 79.4972 148.337 78.5289C143.587 77.3587 140.202 74.3593 137.714 70.2182C134.474 64.8244 131.22 59.4387 127.975 54.0474C125.823 50.4717 123.676 46.8926 121.527 43.3155C121.468 43.2177 121.402 43.1241 121.16 43.069C121.16 44.3955 121.16 45.7222 121.16 47.0488C121.16 53.0146 121.208 58.9808 121.143 64.9458C121.098 69.0689 120.001 72.8278 116.83 75.7086C114.068 78.2181 110.77 79.2358 107.128 78.9264C100.749 78.3845 96.4641 74.7599 93.305 69.3543C88.2199 60.6531 82.9893 52.0382 77.819 43.3873C77.7534 43.2773 77.6749 43.175 77.4067 43.0637C77.4067 43.3934 77.4067 43.7228 77.4067 44.0525C77.4067 50.346 77.4307 56.6397 77.3952 62.933C77.3803 65.5644 76.9557 68.1466 75.8068 70.5373C73.8615 74.5845 70.5424 76.8241 66.2254 77.6103C64.8601 77.8589 63.4557 77.9887 62.0681 77.9966C55.2325 78.035 48.3967 78.0245 41.5609 78.0102C37.1664 78.0009 32.8083 77.6048 28.5535 76.446C16.8877 73.2694 8.36191 66.2782 3.38246 55.123C0.585005 48.8564 -0.433229 42.2173 0.165054 35.3974C0.926044 26.7235 4.00575 18.9971 9.94326 12.5209C14.8198 7.20199 20.8075 3.81173 27.688 1.91557C31.7217 0.80404 35.8402 0.342787 40.0117 0.323904C43.7225 0.307185 47.4335 0.320364 51.1443 0.320364C51.5264 0.32056 51.9083 0.32056 52.3489 0.32056Z" fill="#C2C2C2"/>
<path d="M52.405 22.2333C51.8811 22.2333 51.4953 22.2333 51.1094 22.2333C47.0079 22.2333 42.9051 22.1606 38.8056 22.2507C32.6962 22.3848 27.69 24.7782 24.3814 30.0914C19.9231 37.2503 21.0389 46.9758 27.9259 52.2396C30.7386 54.3895 33.9547 55.6601 37.4541 55.8165C42.4549 56.04 47.4675 56.0067 52.4755 56.0417C54.0248 56.0526 55.1622 54.9308 55.3208 53.3777C55.3573 53.0207 55.336 52.6572 55.336 52.2966C55.3366 39.5456 55.3296 26.7947 55.3395 14.0437C55.3444 7.76101 59.1461 2.42266 65.0922 0.608334C69.9577 -0.876331 74.3139 0.451763 78.2097 3.55622C81.1009 5.86013 82.9541 8.976 84.7662 12.1283C88.6342 18.8572 92.5308 25.5697 96.4127 32.2904C97.2694 33.7735 98.114 35.2639 99.1689 36.7041C99.1689 36.3621 99.1689 36.02 99.1689 35.6779C99.1691 28.6311 99.1506 21.584 99.1773 14.5372C99.1914 10.8208 100.229 7.44059 102.749 4.63806C106.102 0.909083 110.27 -0.591908 115.195 0.284571C119.852 1.11345 123.324 3.86818 125.867 7.70731C128.256 11.3161 130.349 15.1263 132.531 18.8728C135.485 23.947 138.4 29.0449 141.332 34.1325C141.845 35.0228 142.359 35.9126 143.07 36.7533C143.07 24.658 143.07 12.563 143.07 0.394328C146.351 0.394328 149.518 0.394328 152.802 0.394328C152.802 0.785951 152.802 1.13627 152.802 1.48678C152.802 21.9735 152.803 42.4604 152.802 62.9472C152.802 64.5243 152.389 65.4248 151.481 65.6144C150.181 65.8856 149.563 64.9991 148.972 64.038C143.675 55.4275 138.361 46.8277 133.06 38.2204C128.784 31.2794 124.515 24.3337 120.249 17.3869C119.378 15.9693 118.517 14.5459 117.673 13.1119C116.302 10.7815 114.015 9.78678 111.843 10.5989C110.038 11.274 108.881 13.1554 108.878 15.4672C108.872 21.3346 108.876 27.2021 108.876 33.0694C108.876 42.9685 108.876 52.8678 108.875 62.767C108.875 63.1602 108.905 63.5599 108.847 63.9452C108.731 64.718 108.457 65.4495 107.605 65.6327C106.797 65.8063 106.135 65.4338 105.699 64.743C104.029 62.0949 102.37 59.4395 100.717 56.7799C97.3256 51.3204 93.933 45.8615 90.5554 40.3932C86.562 33.9277 82.5828 27.4533 78.5999 20.9814C76.9074 18.2312 75.2337 15.4691 73.5281 12.7274C72.3554 10.8421 70.2972 9.9644 68.3533 10.4675C66.4122 10.9699 65.1117 12.8106 64.9908 15.237C64.9746 15.564 64.9863 15.8924 64.9861 16.2203C64.9859 31.6264 64.9867 47.0324 64.9847 62.4385C64.9845 64.2599 64.331 65.2709 62.9586 65.5778C62.708 65.6338 62.4428 65.6417 62.1842 65.6417C53.9814 65.6376 45.7705 65.8606 37.5786 65.5603C28.6229 65.2318 21.1673 61.6566 16.1798 53.8179C13.6965 49.9148 12.4245 45.5791 12.1928 40.9592C11.8758 34.6384 13.2376 28.7373 16.8498 23.4802C20.777 17.7648 26.1983 14.3256 32.9888 13.1908C35.3141 12.8023 37.6979 12.6768 40.0594 12.6206C43.8657 12.5299 47.6757 12.6141 51.4838 12.5809C52.2159 12.5744 52.4304 12.7945 52.4206 13.5281C52.3823 16.3743 52.405 19.2207 52.405 22.2333Z" fill="#C2C2C2"/>
</svg>
