<svg width="214" height="53" viewBox="0 0 214 53" fill="none" xmlns="http://www.w3.org/2000/svg">
<path d="M105.614 2.99534C110.802 2.00542 115.991 1.015 121.31 0C121.31 5.86582 121.31 11.4047 121.31 17.2133C122.985 16.6627 124.431 16.0634 125.934 15.7134C135.093 13.5811 142.215 18.129 144.368 27.4275C146.35 35.9848 143.408 44.8043 137.011 49.3888C132.499 52.6219 127.306 53.182 122.011 52.8736C118.792 52.6861 115.609 51.9308 112.394 51.5758C110.805 51.4003 110.434 50.809 110.44 49.1847C110.485 35.6678 110.434 22.1504 110.313 8.634C110.292 6.30612 109.397 4.36138 106.547 4.25958C106.228 4.24804 105.923 3.85538 105.611 3.63975C105.612 3.42562 105.613 3.21048 105.614 2.99534ZM134.009 31.6434C133.534 29.9083 132.952 26.3498 131.575 23.1348C129.979 19.4113 126.453 18.0212 122.643 19.0498C122.004 19.2223 121.14 20.2282 121.138 20.8521C121.1 30.1089 121.193 39.3667 121.248 48.6241C121.257 50.0493 121.932 50.6405 123.366 50.8105C126.384 51.1681 128.513 49.8627 130.142 47.5058C133.058 43.2858 133.668 38.436 134.009 31.6434Z" fill="#C1C1C1"/>
<path d="M19.4835 25.1848C21.4653 25.1848 23.3811 25.2816 25.2835 25.1632C28.4727 24.9647 30.0086 22.7732 31.1535 20.0918C31.4595 19.3752 32.1654 18.8305 32.6879 18.2067C32.9599 18.988 33.4523 19.7653 33.4668 20.5511C33.5433 24.8087 33.5293 29.0688 33.4673 33.3268C33.4593 33.8755 32.9899 34.4176 32.7344 34.9627C32.2759 34.6016 31.558 34.3303 31.3975 33.8654C29.2542 27.6491 26.1659 27.4711 19.2825 28.1912C19.2825 31.9006 19.2495 35.6306 19.2985 39.3597C19.3185 40.8581 19.5309 42.353 19.6349 43.8509C19.9234 48.0137 21.6743 49.817 25.7835 50.3045C26.4349 50.3817 27.0424 50.834 27.6703 51.1129C27.5793 51.3666 27.4883 51.6204 27.3973 51.8741C18.375 51.8741 9.35226 51.8741 0.329974 51.8741C0.219983 51.7131 0.109991 51.5517 0 51.3907C0.50246 51.0111 0.953924 50.4294 1.51638 50.2849C5.64955 49.2248 7.09044 48.1551 7.17993 43.872C7.42391 32.2045 7.38841 20.5266 7.19393 8.85709C7.12893 4.96309 5.60855 3.73848 1.75986 2.81475C1.16041 2.67082 0.62345 2.26312 0.0579954 1.97778C0.107991 1.75161 0.157987 1.52494 0.207983 1.29877C0.891929 1.22505 1.57587 1.08765 2.25982 1.08665C14.9148 1.07361 27.5698 1.12376 40.2243 1.03148C42.3121 1.01644 43.0316 1.72804 43.0166 3.72444C42.9921 6.98005 43.1711 10.2377 43.1116 13.4918C43.1001 14.1272 42.3941 14.7495 42.0087 15.3783C41.5227 14.9406 40.8952 14.5855 40.5813 14.0464C39.9978 13.046 39.6538 11.9071 39.1094 10.8801C36.8661 6.64757 33.3923 4.23043 28.5702 4.00276C26.1609 3.88892 23.7326 3.8473 21.3353 4.04488C20.6914 4.09804 19.6324 5.12758 19.6069 5.7439C19.349 11.9121 19.262 18.0873 19.1505 24.2611C19.145 24.5575 19.36 24.8573 19.4835 25.1848Z" fill="#C1C1C1"/>
<path d="M75.2355 33.8136C75.5 49.5566 60.9831 56.5116 48.0222 51.2456C42.2531 48.9022 39.5123 43.8708 38.6269 37.996C37.4715 30.3293 38.8304 23.1973 45.4839 18.3149C51.8569 13.638 59.0388 13.3161 66.0222 16.5878C73.1277 19.9166 75.1335 26.4729 75.2355 33.8136ZM64.8458 33.1782C63.9724 29.4608 63.0925 24.8281 61.7401 20.3383C61.0746 18.1293 59.2063 16.5221 56.634 16.6063C53.9107 16.6956 52.2573 18.4232 51.2584 20.8157C50.8114 21.8859 50.396 22.9972 50.1785 24.131C49.0686 29.9176 48.8041 35.7533 50.0655 41.5269C50.606 44.0002 51.4234 46.5693 52.7708 48.672C54.9491 52.07 58.9143 51.9371 61.2706 48.6499C62.0291 47.5918 62.698 46.3301 62.946 45.0699C63.6514 41.4913 64.1179 37.8651 64.8458 33.1782Z" fill="#C1C1C1"/>
<path d="M182.569 31.8857C177.402 31.8857 172.508 31.8857 167.614 31.8857C165.533 31.8857 163.449 31.958 161.372 31.8657C159.729 31.7925 159.161 32.4293 159.252 34.0662C159.889 45.6218 169.697 51.3317 179.958 46.0932C180.357 45.8896 180.815 45.7998 181.992 45.4092C181.342 46.5144 181.131 47.0746 180.756 47.4808C176.046 52.5799 167.094 54.5186 160.185 51.7063C153.061 48.8062 149.133 43.489 148.739 35.6413C148.46 30.0995 149.581 25.0591 153.236 20.7208C158.782 14.1398 170.343 12.6585 176.747 17.8292C181.049 21.302 182.145 26.1949 182.569 31.8857ZM159.68 29.6396C163.282 29.6396 166.518 29.7043 169.747 29.5794C170.324 29.5569 171.39 28.6958 171.351 28.3132C171.045 25.357 170.929 22.2814 169.968 19.5182C168.725 15.9442 165.04 15.5716 162.746 18.582C160.341 21.7358 159.59 25.4322 159.68 29.6396Z" fill="#C1C1C1"/>
<path d="M210.902 26.045C209.959 24.2216 209.29 22.6951 208.42 21.2934C206.858 18.776 204.759 16.9987 201.612 16.8613C198.667 16.733 196.964 17.8091 196.051 20.4389C195.15 23.0346 195.693 25.2872 198.071 26.7771C200.235 28.1326 202.638 29.1175 204.978 30.1736C208.633 31.8245 212.467 33.2422 213.599 37.754C215.379 44.848 211.088 51.1245 203.52 52.5101C198.176 53.4885 192.939 52.8075 187.735 51.5051C186.333 51.1541 185.708 50.4385 185.689 48.905C185.655 46.0861 185.397 43.2698 185.232 40.4525C185.491 40.3151 185.75 40.1777 186.009 40.0403C186.521 40.6837 187.049 41.3151 187.541 41.9725C189.17 44.1464 190.535 46.5961 192.476 48.4356C194.483 50.3372 197.209 50.7619 199.963 49.8713C202.324 49.1076 203.729 47.4 204.167 45.033C204.592 42.7423 203.514 40.8642 201.657 39.6892C199.92 38.59 197.945 37.8639 196.061 37.0038C194.629 36.3499 193.124 35.8384 191.737 35.0992C185.041 31.5307 184.155 23.2191 189.923 18.2434C194.115 14.6272 199.134 14.3103 204.285 14.8444C206.246 15.0475 208.178 15.6117 210.092 16.1297C210.644 16.2791 211.468 16.7956 211.516 17.2179C211.807 19.784 211.942 22.3701 212.028 24.9527C212.038 25.2461 211.422 25.56 210.902 26.045Z" fill="#C1C1C1"/>
<path d="M98.4467 51.9415C91.1483 51.9415 83.8499 51.9415 75.9665 51.9415C76.5624 51.2038 76.8409 50.4977 77.2439 50.4175C80.4661 49.7736 81.2611 47.3494 81.3106 44.6399C81.4291 38.1448 81.4261 31.6456 81.3406 25.1494C81.2861 21.0052 80.4081 19.9621 76.3205 17.8945C81.4661 16.8469 86.6111 15.7993 92.0727 14.6875C92.0727 17.3398 92.0727 19.775 92.0727 22.2107C92.2562 22.2749 92.4402 22.3391 92.6237 22.4038C93.0786 21.6832 93.5201 20.954 93.9901 20.2439C96.8653 15.9011 101.287 13.9413 105.435 14.9959C106.903 15.369 107.435 15.8008 106.726 17.3619C105.6 19.8417 104.673 22.4123 103.853 24.4644C100.859 24.0963 98.2762 23.5687 95.6859 23.5251C93.4941 23.4885 91.8362 24.5777 91.8862 27.1668C92.0067 33.4148 92.0137 39.6683 92.3137 45.9077C92.4362 48.4547 93.8481 50.2656 96.7523 50.4035C97.4203 50.4351 98.0677 50.909 98.7247 51.1798C98.6322 51.433 98.5392 51.6873 98.4467 51.9415Z" fill="#C1C1C1"/>
</svg>
