<svg width="104" height="102" viewBox="0 0 104 102" fill="none" xmlns="http://www.w3.org/2000/svg">
<path d="M24.395 40.4062H12.5593V66.5781H24.395V40.4062Z" fill="#773DCD"/>
<path d="M53.9842 40.4062H42.1485V66.5781H53.9842V40.4062Z" fill="#773DCD"/>
<path d="M48.0663 0L1.56908 29.6476V35.3404H94.5636V29.6476L48.0663 0ZM48.2447 24.2613C45.2376 24.2613 42.7995 21.8264 42.7995 18.8234C42.7995 15.8204 45.2376 13.3856 48.2447 13.3856C51.2518 13.3856 53.69 15.8204 53.69 18.8234C53.69 21.8264 51.2518 24.2613 48.2447 24.2613Z" fill="#773DCD"/>
<path d="M61.0847 85.9961H1.89793L0 89.3731H61.8718C61.5294 88.5288 61.2656 86.8403 61.0847 85.9961Z" fill="#773DCD"/>
<path d="M61.1295 78.3965H5.69296L3.79503 81.7735H60.8117C60.8387 80.9292 60.9452 79.2407 61.1295 78.3965Z" fill="#773DCD"/>
<path d="M63.8052 70.7988H9.48798L7.59004 74.1758H62.2438C62.6758 73.3316 63.2016 71.6431 63.8052 70.7988Z" fill="#773DCD"/>
<path d="M83.5733 58.8768V40.4062H71.7377V62.4725C75.9647 60.3086 79.3463 59.0093 83.5733 58.8768Z" fill="#773DCD"/>
<path d="M84.5126 63.0781C73.7497 63.0781 65.0251 71.7908 65.0251 82.539C65.0251 93.2872 73.7497 102 84.5126 102C95.2754 102 104 93.2872 104 82.539C104 71.7908 95.2754 63.0781 84.5126 63.0781ZM87.0572 93.8925C86.7816 93.9659 86.9549 94.0259 86.1095 94.0791V96.1264H81.8825V94.0672C80.1917 93.6299 77.5963 92.4606 76.3975 90.3897L80.108 88.2774C81.0861 89.9676 83.9047 90.3855 86.0377 89.8156C86.6751 89.6451 88.7675 88.957 88.7675 87.2778C88.7675 85.9675 87.54 85.4002 84.0628 84.4588C80.7801 83.5698 76.2876 82.3532 76.2876 77.6347C76.2876 74.6841 78.1222 72.2914 81.3626 71.2353C81.5646 71.1694 81.8825 71.1095 81.8825 71.0563V69.1103H86.1095V70.8174C88.6458 71.1087 90.2867 72.034 91.5548 73.7664L88.1926 76.2577C87.299 75.0353 84.8211 74.5743 82.7524 75.248C81.9087 75.5224 80.5053 76.1986 80.5053 77.6347C80.5053 78.8986 81.732 79.4541 85.1695 80.3853C88.475 81.2802 92.9539 82.5061 92.9539 87.2778C92.9539 90.3922 90.6654 92.9267 87.0572 93.8925Z" fill="#777777"/>
</svg>
