<svg width="104" height="103" viewBox="0 0 104 103" fill="none" xmlns="http://www.w3.org/2000/svg">
<path d="M24.395 40.6641H12.5593V66.8359H24.395V40.6641Z" fill="#773DCD"/>
<path d="M53.9841 40.6641H42.1484V66.8359H53.9841V40.6641Z" fill="#773DCD"/>
<path d="M48.0664 0.257812L1.56909 29.9054V35.5982H94.5636V29.9054L48.0664 0.257812ZM48.2447 24.5191C45.2376 24.5191 42.7995 22.0843 42.7995 19.0813C42.7995 16.0782 45.2376 13.6434 48.2447 13.6434C51.2518 13.6434 53.69 16.0782 53.69 19.0813C53.69 22.0843 51.2518 24.5191 48.2447 24.5191Z" fill="#773DCD"/>
<path d="M61.0847 86.2539H1.89793L0 89.6309H61.8718C61.5294 88.7867 61.2656 87.0982 61.0847 86.2539Z" fill="#773DCD"/>
<path d="M61.1296 78.6543H5.69298L3.79504 82.0313H60.8117C60.8387 81.1871 60.9453 79.4985 61.1296 78.6543Z" fill="#773DCD"/>
<path d="M63.8053 71.0566H9.48802L7.59009 74.4336H62.2438C62.6758 73.5894 63.2017 71.9009 63.8053 71.0566Z" fill="#773DCD"/>
<path d="M83.5733 59.1346V40.6641H71.7377V62.7303C75.9647 60.5665 79.3463 59.2672 83.5733 59.1346Z" fill="#773DCD"/>
<path d="M84.5126 63.3359C73.7497 63.3359 65.0251 72.0486 65.0251 82.7968C65.0251 93.545 73.7497 102.258 84.5126 102.258C95.2754 102.258 104 93.545 104 82.7968C104 72.0486 95.2754 63.3359 84.5126 63.3359ZM87.0572 94.1503C86.7816 94.2237 86.9549 94.2837 86.1095 94.3369V96.3842H81.8825V94.3251C80.1917 93.8877 77.5963 92.7184 76.3975 90.6475L80.108 88.5352C81.0861 90.2254 83.9047 90.6433 86.0377 90.0734C86.6751 89.9029 88.7675 89.2148 88.7675 87.5356C88.7675 86.2253 87.54 85.658 84.0628 84.7166C80.7801 83.8276 76.2876 82.6111 76.2876 77.8925C76.2876 74.9419 78.1222 72.5493 81.3626 71.4931C81.5646 71.4273 81.8825 71.3673 81.8825 71.3141V69.3681H86.1095V71.0752C88.6458 71.3665 90.2867 72.2918 91.5548 74.0242L88.1926 76.5156C87.299 75.2931 84.8211 74.8321 82.7524 75.5058C81.9087 75.7802 80.5053 76.4565 80.5053 77.8925C80.5053 79.1564 81.732 79.7119 85.1695 80.6431C88.475 81.538 92.9539 82.7639 92.9539 87.5356C92.9539 90.65 90.6654 93.1845 87.0572 94.1503Z" fill="#444444"/>
</svg>
