<svg width="104" height="104" viewBox="0 0 104 104" fill="none" xmlns="http://www.w3.org/2000/svg">
<path d="M31.2523 18.0157C34.5648 18.0157 37.0807 17.4555 38.7316 16.9242L42.5383 2.31737C42.5383 2.31737 38.8506 1.4161 31.2789 3.1724C25.2997 4.5588 19.1318 0.871094 19.1318 0.871094L23.6109 16.8719C25.2573 17.4184 27.8315 18.0157 31.2523 18.0157Z" fill="#773DCD"/>
<path d="M31.3956 33.1528C39.9323 33.1528 46.621 31.2615 49.9509 30.0874C46.906 26.2617 43.592 22.8871 40.397 20.3644C38.4171 21.0565 35.3373 21.8054 31.2531 21.8054C27.1167 21.8054 24.0066 21.0368 22.0304 20.3379C18.8059 22.8795 15.457 26.2905 12.3863 30.1586C16.068 31.3449 23.0462 33.1528 31.3956 33.1528Z" fill="#773DCD"/>
<path d="M65.3325 93.3568L63.0639 101.578L66.7175 102.586L68.9861 94.365L65.3325 93.3568Z" fill="#773DCD"/>
<path d="M70.8856 94.3936L70.3926 102.908L74.1769 103.127L74.6699 94.6127L70.8856 94.3936Z" fill="#773DCD"/>
<path d="M79.8399 93.3815L76.1139 94.0762L77.677 102.46L81.403 101.765L79.8399 93.3815Z" fill="#773DCD"/>
<path d="M84.4444 91.2767L80.9856 92.8242L84.4685 100.609L87.9274 99.0613L84.4444 91.2767Z" fill="#773DCD"/>
<path d="M88.6235 88.1229L85.621 90.4355L90.825 97.1917L93.8275 94.879L88.6235 88.1229Z" fill="#773DCD"/>
<path d="M91.5245 84.3045L89.2949 87.3691L96.1909 92.3864L98.4206 89.3217L91.5245 84.3045Z" fill="#773DCD"/>
<path d="M93.6037 79.5004L92.1649 83.0059L100.055 86.2441L101.493 82.7386L93.6037 79.5004Z" fill="#773DCD"/>
<path d="M94.4484 74.4914L94.0553 78.2617L102.538 79.1461L102.931 75.3758L94.4484 74.4914Z" fill="#773DCD"/>
<path d="M103.212 68.5648L94.7091 69.2129L94.9971 72.9919L103.5 72.3438L103.212 68.5648Z" fill="#773DCD"/>
<path d="M101.229 61.0773L93.2513 64.0938L94.5918 67.639L102.569 64.6225L101.229 61.0773Z" fill="#773DCD"/>
<path d="M98.0159 54.8873L90.663 59.209L92.5834 62.4764L99.9363 58.1547L98.0159 54.8873Z" fill="#773DCD"/>
<path d="M71.3987 56.748V73.0975L83.2228 85.2855L85.9433 82.6469L75.1887 71.561V56.748H71.3987Z" fill="#777777"/>
<path d="M39.0735 78.66C36.657 78.8836 34.0737 79.0109 31.3221 79.0109C20.0263 79.0109 11.5646 76.8703 5.90384 74.7168C11.4396 82.7532 20.7009 88.0236 31.197 88.0236C34.7923 88.0236 38.2366 87.3922 41.4415 86.2559C40.3682 83.8341 39.5669 81.288 39.0735 78.66Z" fill="#773DCD"/>
<path d="M38.4769 72.3797C38.4769 58.9644 46.2086 47.3275 57.4453 41.6705C55.9861 38.7916 54.2488 35.9468 52.3371 33.2559C49.2043 34.4717 41.5825 36.9436 31.3956 36.9436C21.4581 36.9436 13.4839 34.593 9.98419 33.3597C4.55761 41.027 0.5 49.9191 0.5 57.3271C0.5 61.5508 1.35427 65.5743 2.89682 69.2362C7.5381 71.5739 17.0617 75.2207 31.3221 75.2207C33.8963 75.2207 36.3128 75.1001 38.577 74.8917C38.5148 74.0586 38.4769 73.2218 38.4769 72.3797ZM33.7394 67.1479C33.5271 67.2047 33.3103 67.2533 33.0913 67.298V69.8426H29.3012V67.423C26.7907 67.0956 24.406 65.9245 23.1068 63.6747L26.3882 61.7782C27.4585 63.6292 30.4655 64.0999 32.7578 63.4875C33.4597 63.2987 35.7504 62.5354 35.7504 60.6139C35.7504 59.0888 34.4299 58.4596 30.7119 57.4522C27.4275 56.5616 22.9302 55.3427 22.9302 50.7029C22.9302 47.7944 24.8449 45.4325 28.0528 44.3849C28.453 44.2545 28.8722 44.1484 29.3012 44.065V41.5689H33.0913V43.9976C35.0985 44.3152 36.989 45.224 38.2063 46.8886L35.1462 49.1255C34.1487 47.7588 31.4942 47.2487 29.2292 47.9885C28.2923 48.294 26.7202 49.0535 26.7202 50.7029C26.7202 52.1803 28.0263 52.7973 31.7034 53.7941C35.0106 54.6908 39.5404 55.9188 39.5404 60.6139C39.5404 63.6838 37.3179 66.1882 33.7394 67.1479Z" fill="#773DCD"/>
<path d="M46.057 72.3777C46.057 57.6087 58.0722 45.5928 72.8412 45.5928C77.9411 45.5928 82.8507 47.0262 87.0842 49.6913L85.0011 49.6534L84.9322 53.4427L94.9121 53.5799L93.7084 43.7266L89.9494 44.2094L90.3481 47.3104C85.2445 43.7364 79.1713 41.8027 72.8412 41.8027C55.9823 41.8027 42.267 55.5189 42.267 72.3777C42.267 83.1816 48.0619 93.2934 57.3907 98.767L59.025 99.7266L60.942 96.4573L59.3085 95.4985C51.1341 90.7025 46.057 81.843 46.057 72.3777Z" fill="#777777"/>
</svg>
