<svg width="104" height="92" viewBox="0 0 104 92" fill="none" xmlns="http://www.w3.org/2000/svg">
<path d="M69.2678 10.6561C29.1097 -15.2602 0.5 14.2456 0.5 14.2456C0.5 14.2456 9.49372 13.9296 18.3306 21.0742C23.7069 25.4219 26.0884 30.1535 27.1351 33.2006C40.35 14.5665 59.0153 11.0534 69.2678 10.6561Z" fill="#773DCD"/>
<path d="M81.1597 8.05681L78.5031 11.3711L82.2057 14.3652L84.8623 11.0509L81.1597 8.05681Z" fill="#773DCD"/>
<path d="M84.6255 23.0254C86.4357 33.1599 87.0346 52.2762 71.6826 69.2584C75.0547 69.6088 80.5555 70.877 85.8538 75.1617C94.3104 81.9998 96.1073 91.5575 96.1073 91.5575C96.1073 91.5575 118.82 56.9916 84.6255 23.0254Z" fill="#773DCD"/>
<path d="M22.9567 80.4369L20.2652 83.7954C17.2905 87.5061 12.3582 88.3092 9.0364 85.6231C5.71462 82.9369 5.44177 77.9255 8.41654 74.2147L10.2314 71.9497L6.52938 68.9551L4.71352 71.2201C0.0673991 77.0164 0.655889 84.9766 6.05498 89.3424C11.4531 93.7083 19.3212 92.5863 23.9673 86.79L25.477 84.9069C24.5007 83.5079 23.6555 82.0135 22.9567 80.4369Z" fill="#773DCD"/>
<path d="M65.1873 73.385L63.1433 68.6353C61.933 65.8221 59.099 59.2352 49.3276 51.3333C47.6429 49.9706 46.0438 48.8132 44.5274 47.8125C33.7521 49.1732 25.4153 58.4034 25.4153 69.5959C25.4153 81.7252 35.2048 91.5589 47.2816 91.5589C57.942 91.5589 66.8149 83.8957 68.7515 73.7555L65.1873 73.385ZM50.1461 82.5799C49.9864 82.6228 49.8219 82.6563 49.6584 82.6935V85.3529H44.9049V82.8492C42.1668 82.43 39.5875 81.1026 38.1577 78.6189L42.2733 76.2297C43.3742 78.1414 46.5135 78.6141 48.914 77.9696C49.6308 77.7767 51.9696 76.9984 51.9696 75.0991C51.9696 73.6171 50.5815 72.9754 46.6713 71.9106C42.9797 70.9051 37.9238 69.5291 37.9238 64.1921C37.9238 60.8547 40.099 58.1485 43.7431 56.9539C44.1167 56.8307 44.5065 56.7323 44.9039 56.6464V53.8409H49.6575V56.5604C51.8346 56.9577 53.871 57.9871 55.203 59.8167L51.3649 62.6346C50.3591 61.2519 47.545 60.7315 45.2186 61.4926C44.2698 61.8029 42.6773 62.5678 42.6773 64.1921C42.6773 65.6216 44.0492 66.2499 47.9148 67.3032C51.6321 68.3154 56.7222 69.7019 56.7222 75.0991C56.7241 78.6199 54.2038 81.4865 50.1461 82.5799Z" fill="#777777"/>
<path d="M78.3603 17.5429C78.3299 17.4646 76.0739 15.6436 75.9931 15.6312C74.8237 15.4497 47.6248 11.569 30.4331 36.8245C34.2664 37.6056 42.027 39.2987 52.3099 47.6131C62.5928 55.9284 65.9688 63.1628 67.508 66.7399C88.359 44.4886 78.7882 18.6554 78.3603 17.5429Z" fill="#773DCD"/>
</svg>
