<svg width="104" height="103" viewBox="0 0 104 103" fill="none" xmlns="http://www.w3.org/2000/svg">
<path d="M31.2524 17.1446C34.5649 17.1446 37.0807 16.5844 38.7316 16.0531L42.5383 1.44628C42.5383 1.44628 38.8506 0.545007 31.2789 2.30131C25.2997 3.68771 19.1318 0 19.1318 0L23.6109 16.0008C25.2573 16.5473 27.8315 17.1446 31.2524 17.1446Z" fill="#773DCD"/>
<path d="M31.3957 32.2817C39.9323 32.2817 46.621 30.3904 49.9509 29.2163C46.906 25.3906 43.592 22.016 40.397 19.4933C38.4171 20.1854 35.3373 20.9343 31.2532 20.9343C27.1167 20.9343 24.0066 20.1657 22.0305 19.4668C18.8059 22.0084 15.457 25.4194 12.3864 29.2875C16.068 30.4738 23.0462 32.2817 31.3957 32.2817Z" fill="#773DCD"/>
<path d="M65.3325 92.4857L63.064 100.707L66.7176 101.715L68.9861 93.4939L65.3325 92.4857Z" fill="#773DCD"/>
<path d="M70.8856 93.5225L70.3926 102.037L74.1769 102.256L74.6699 93.7416L70.8856 93.5225Z" fill="#773DCD"/>
<path d="M79.8399 92.5104L76.1139 93.2051L77.677 101.589L81.403 100.894L79.8399 92.5104Z" fill="#773DCD"/>
<path d="M84.4444 90.4056L80.9856 91.9531L84.4686 99.7378L87.9274 98.1903L84.4444 90.4056Z" fill="#773DCD"/>
<path d="M88.6234 87.2518L85.621 89.5645L90.825 96.3206L93.8274 94.0079L88.6234 87.2518Z" fill="#773DCD"/>
<path d="M91.5245 83.4334L89.2948 86.498L96.1908 91.5153L98.4205 88.4506L91.5245 83.4334Z" fill="#773DCD"/>
<path d="M93.6037 78.6293L92.1649 82.1348L100.054 85.373L101.493 81.8675L93.6037 78.6293Z" fill="#773DCD"/>
<path d="M94.4484 73.6203L94.0553 77.3906L102.538 78.275L102.931 74.5047L94.4484 73.6203Z" fill="#773DCD"/>
<path d="M103.212 67.6937L94.7091 68.3418L94.9971 72.1208L103.5 71.4727L103.212 67.6937Z" fill="#773DCD"/>
<path d="M101.229 60.2062L93.2513 63.2227L94.5919 66.7679L102.569 63.7514L101.229 60.2062Z" fill="#773DCD"/>
<path d="M98.0159 54.0162L90.663 58.3379L92.5834 61.6053L99.9363 57.2836L98.0159 54.0162Z" fill="#773DCD"/>
<path d="M71.3987 55.877V72.2264L83.2228 84.4144L85.9433 81.7758L75.1887 70.6899V55.877H71.3987Z" fill="#444444"/>
<path d="M39.0735 77.7889C36.6569 78.0125 34.0736 78.1398 31.3221 78.1398C20.0262 78.1398 11.5646 75.9992 5.90381 73.8457C11.4395 81.8821 20.7009 87.1525 31.197 87.1525C34.7922 87.1525 38.2366 86.5211 41.4415 85.3848C40.3681 82.963 39.5669 80.4169 39.0735 77.7889Z" fill="#773DCD"/>
<path d="M38.4769 71.5086C38.4769 58.0933 46.2086 46.4564 57.4453 40.7994C55.9861 37.9205 54.2488 35.0757 52.3371 32.3848C49.2043 33.6006 41.5825 36.0725 31.3956 36.0725C21.4581 36.0725 13.4839 33.7219 9.98419 32.4886C4.55761 40.1559 0.5 49.048 0.5 56.456C0.5 60.6797 1.35427 64.7032 2.89682 68.3651C7.5381 70.7028 17.0617 74.3496 31.3221 74.3496C33.8963 74.3496 36.3128 74.229 38.577 74.0206C38.5148 73.1875 38.4769 72.3507 38.4769 71.5086ZM33.7394 66.2768C33.5271 66.3336 33.3103 66.3822 33.0913 66.4269V68.9715H29.3012V66.5519C26.7907 66.2245 24.406 65.0534 23.1068 62.8036L26.3882 60.9071C27.4585 62.7581 30.4655 63.2288 32.7578 62.6164C33.4597 62.4276 35.7504 61.6643 35.7504 59.7428C35.7504 58.2177 34.4299 57.5885 30.7119 56.5811C27.4275 55.6905 22.9302 54.4716 22.9302 49.8318C22.9302 46.9233 24.8449 44.5614 28.0528 43.5138C28.453 43.3835 28.8722 43.2773 29.3012 43.1939V40.6978H33.0913V43.1265C35.0985 43.4441 36.989 44.3529 38.2063 46.0175L35.1462 48.2544C34.1487 46.8877 31.4942 46.3776 29.2292 47.1174C28.2923 47.4229 26.7202 48.1824 26.7202 49.8318C26.7202 51.3092 28.0263 51.9262 31.7034 52.923C35.0106 53.8197 39.5404 55.0477 39.5404 59.7428C39.5404 62.8127 37.3179 65.3172 33.7394 66.2768Z" fill="#773DCD"/>
<path d="M46.057 71.5066C46.057 56.7376 58.0722 44.7217 72.8412 44.7217C77.9411 44.7217 82.8507 46.1551 87.0842 48.8202L85.0011 48.7823L84.9322 52.5716L94.9121 52.7088L93.7084 42.8555L89.9494 43.3383L90.3481 46.4393C85.2445 42.8653 79.1713 40.9316 72.8412 40.9316C55.9824 40.9316 42.267 54.6478 42.267 71.5066C42.267 82.3105 48.0619 92.4223 57.3907 97.8959L59.025 98.8555L60.942 95.5862L59.3085 94.6274C51.1341 89.8315 46.057 80.9719 46.057 71.5066Z" fill="#444444"/>
</svg>
