<svg width="175" height="64" viewBox="0 0 175 64" fill="none" xmlns="http://www.w3.org/2000/svg">
<path d="M72.2154 0C72.1996 0.970059 72.1719 1.94012 72.1703 2.91018C72.1647 6.35976 72.1681 9.80935 72.1681 13.2589C72.1681 13.5235 72.1681 13.7883 72.1681 14.1764C72.3836 14.0229 72.5224 13.9523 72.6251 13.8467C75.321 11.0717 78.6064 10.5249 82.1694 11.541C85.6559 12.5353 87.3837 15.1734 88.0883 18.5638C88.2847 19.5086 88.3813 20.4905 88.3863 21.4562C88.4146 26.8733 88.4013 32.2907 88.4 37.708C88.4 37.9218 88.3788 38.1357 88.3648 38.3991C85.2546 38.3991 82.1798 38.3991 79.03 38.3991C79.016 38.0984 78.9916 37.8153 78.9914 37.5323C78.989 33.0625 78.9998 28.5925 78.979 24.1228C78.9758 23.4252 78.9108 22.708 78.7375 22.0351C78.3917 20.6923 77.4561 19.9164 76.1771 19.7864C74.7381 19.6401 73.4976 20.0735 72.8831 21.4139C72.4817 22.2894 72.2526 23.3185 72.238 24.2831C72.1716 28.6791 72.2084 33.0766 72.2081 37.4737C72.2081 37.7617 72.2081 38.0497 72.2081 38.3962C71.9418 38.4175 71.7317 38.4487 71.5216 38.449C68.8698 38.4523 66.2177 38.4322 63.5663 38.4652C62.9385 38.473 62.7989 38.2549 62.7995 37.6712C62.8135 25.3306 62.8097 12.9898 62.8126 0.649185C62.8126 0.432838 62.8507 0.216638 62.8712 0.000291572C65.9861 0 69.1007 0 72.2154 0Z" fill="#C6C6C6"/>
<path d="M175 0.000145786C174.655 0.879672 174.323 1.76474 173.962 2.6377C171.111 9.529 168.247 16.4145 165.416 23.3138C165.171 23.9098 164.871 24.0914 164.24 24.0846C161.102 24.0504 157.963 24.069 154.825 24.069C154.567 24.069 154.309 24.069 153.919 24.069C157.282 15.9618 160.593 7.9809 163.904 0C167.603 0.000145786 171.301 0.000145786 175 0.000145786Z" fill="#C6C6C6"/>
<path d="M106.964 64.0002C106.809 63.9384 106.659 63.8489 106.498 63.8188C103.205 63.2058 101.351 61.1144 100.676 57.9641C100.021 54.9014 100.652 52.1071 102.967 49.8665C105.035 47.8652 108.436 47.5242 110.647 49.0328C111.041 49.3022 111.387 49.6441 111.882 50.059C111.922 49.6963 111.982 49.4526 111.968 49.2133C111.943 48.7578 112.098 48.5445 112.586 48.5513C113.899 48.5696 115.213 48.5674 116.526 48.5521C116.99 48.5467 117.175 48.7243 117.175 49.1948C117.166 53.7115 117.165 58.2284 117.176 62.7451C117.177 63.2456 116.987 63.4421 116.489 63.4351C115.298 63.4185 114.104 63.3934 112.915 63.445C112.191 63.4765 111.857 63.2608 111.968 62.5079C111.988 62.3736 111.932 62.2284 111.906 62.0467C111.785 62.076 111.667 62.0679 111.616 62.1223C110.681 63.1278 109.516 63.6666 108.169 63.8538C108.055 63.8697 107.949 63.9499 107.84 64.0002C107.548 64.0002 107.256 64.0002 106.964 64.0002ZM112.121 55.9685C112.114 54.2222 110.675 52.8051 108.895 52.792C107.114 52.7789 105.616 54.2535 105.621 56.0143C105.626 57.7559 107.151 59.2139 108.942 59.1891C110.716 59.1646 112.127 57.7346 112.121 55.9685Z" fill="#C6C6C6"/>
<path d="M156.458 63.9999C155.963 63.8904 155.471 63.7675 154.974 63.6734C151.563 63.0274 149.234 60.3252 149.044 56.8646C148.872 53.7448 149.818 51.117 152.518 49.4044C155.292 47.6455 158.262 47.5753 161.096 49.2209C163.895 50.8461 164.736 53.5506 164.655 56.6363C164.639 57.2477 164.285 57.26 163.834 57.2588C160.916 57.2511 157.998 57.2535 155.079 57.256C154.147 57.2567 153.999 57.5005 154.416 58.328C155.224 59.9334 157.622 60.3524 159.074 59.0861C159.517 58.699 159.86 58.6799 160.362 58.8891C161.547 59.382 162.754 59.8217 164.135 60.3537C163.635 60.9314 163.255 61.4512 162.795 61.8862C161.545 63.0688 159.989 63.5815 158.318 63.8135C158.083 63.846 157.856 63.9365 157.626 64.0001C157.237 63.9999 156.847 63.9999 156.458 63.9999ZM156.825 54.3727C157.53 54.3727 158.235 54.3724 158.94 54.3728C159.496 54.3731 159.597 54.1056 159.422 53.6197C159.083 52.6769 158.038 52.0182 156.862 52.0332C155.669 52.0485 154.662 52.7059 154.324 53.6596C154.158 54.1256 154.276 54.3668 154.783 54.3708C155.464 54.3759 156.144 54.3719 156.825 54.3727Z" fill="#C6C6C6"/>
<path d="M143.61 64.0002C143.406 63.9356 143.206 63.8406 142.997 63.8108C137.284 63 135.386 57.8976 136.55 53.6402C137.388 50.5767 140.165 48.3469 143.365 48.1562C144.636 48.0805 145.897 48.1186 147.095 48.6054C147.316 48.695 147.641 48.9179 147.646 49.0878C147.69 50.5081 147.671 51.9306 147.671 53.2607C146.597 53.1241 145.599 52.8651 144.612 52.899C142.564 52.9696 141.246 54.7789 141.684 56.7386C142.027 58.2699 143.634 59.3466 145.378 59.1279C146.134 59.0331 146.868 58.7671 147.68 58.5614C147.68 59.9606 147.703 61.3844 147.654 62.8055C147.647 62.9959 147.307 63.2599 147.07 63.3411C146.319 63.5986 145.544 63.7856 144.778 63.9999C144.389 64.0002 143.999 64.0002 143.61 64.0002Z" fill="#C6C6C6"/>
<path d="M50.5147 14.0765C50.5147 13.4156 50.5288 12.8599 50.5099 12.3055C50.4967 11.9229 50.5967 11.7235 51.0331 11.7255C53.7087 11.7378 56.3845 11.7424 59.0601 11.7226C59.6197 11.7185 59.6102 12.0314 59.6091 12.4244C59.6022 14.659 59.6059 16.8935 59.6059 19.1281C59.6059 25.2489 59.6059 31.3696 59.6059 37.4904C59.6059 37.7756 59.6059 38.0606 59.6059 38.3982C56.5644 38.3982 53.6092 38.3982 50.5302 38.3982C50.5302 37.6786 50.5302 36.9501 50.5302 36.21C50.363 36.2317 50.3001 36.2206 50.2786 36.2455C47.2879 39.7047 41.5991 39.8577 37.7292 37.8158C33.8696 35.7792 31.6518 32.4835 30.8663 28.2785C29.8413 22.7899 31.1332 17.9082 35.3797 14.1094C38.5073 11.3115 42.2294 10.4433 46.3249 11.5555C47.0878 11.7627 47.8299 12.1253 48.5104 12.5341C49.1853 12.9392 49.7705 13.4936 50.5147 14.0765ZM45.2 30.6386C48.3009 30.6372 50.7143 28.2448 50.7351 25.1514C50.7562 22.0402 48.3123 19.5882 45.1927 19.591C42.0477 19.5936 39.6235 22.0018 39.6245 25.1222C39.6255 28.245 42.0463 30.6401 45.2 30.6386Z" fill="#C6C6C6"/>
<path d="M0 11.7304C0.571447 11.7304 0.981126 11.7304 1.3908 11.7304C4.09167 11.7304 6.79254 11.7444 9.49312 11.7184C10.017 11.7135 10.2602 11.8859 10.4481 12.3719C12.2352 16.994 14.0475 21.6065 15.8531 26.2217C15.9836 26.5552 16.1185 26.8872 16.3293 27.4153C16.5177 26.9937 16.6374 26.7507 16.7367 26.4995C18.585 21.823 20.4427 17.15 22.2625 12.4622C22.4869 11.8843 22.7773 11.7103 23.3772 11.717C26.1263 11.7479 28.8761 11.7305 31.6255 11.7305C31.8638 11.7305 32.1019 11.7305 32.4607 11.7305C32.3379 12.0696 32.2609 12.3116 32.164 12.5453C27.3134 24.2359 22.456 35.9239 17.6235 47.622C17.3785 48.2151 17.084 48.4017 16.4511 48.3939C13.4605 48.3578 10.4693 48.3778 7.3529 48.3778C7.46824 48.0604 7.54401 47.8197 7.64169 47.5883C8.79407 44.8578 9.93623 42.1227 11.1165 39.404C11.34 38.889 11.3278 38.4701 11.1105 37.9599C7.54036 29.5781 3.98831 21.1888 0.433185 12.8009C0.302952 12.4939 0.182647 12.1826 0 11.7304Z" fill="#C6C6C6"/>
<path d="M103.804 39.1345C98.8529 38.9245 94.216 36.582 91.7605 31.1186C89.3635 25.785 89.8962 20.5265 93.7382 16.0192C97.7547 11.3073 103.09 10.1184 108.92 11.712C114.537 13.2471 117.866 17.1163 118.833 22.8607C120.313 31.6433 113.753 39.1527 103.804 39.1345ZM104.736 30.5274C107.795 30.5227 110.098 28.1798 110.084 25.0865C110.07 22.0373 107.764 19.7081 104.747 19.6951C101.704 19.6821 99.3613 22.0374 99.3594 25.1122C99.3574 28.1985 101.675 30.5321 104.736 30.5274Z" fill="#C6C6C6"/>
<path d="M134.119 39.1359C129.338 38.9628 124.802 36.7648 122.232 31.6073C119.702 26.5298 120.061 21.4472 123.354 16.7687C126.628 12.1181 132.707 10.1178 138.65 11.5306C144.159 12.8403 148.125 17.111 149.073 22.7545C150.557 31.5818 144.056 39.1329 134.119 39.1359ZM134.943 30.5268C138.007 30.5364 140.324 28.2107 140.329 25.1209C140.334 22.0745 138.035 19.7236 135.024 19.6947C131.981 19.6654 129.614 22.0124 129.595 25.0771C129.577 28.1585 131.891 30.5171 134.943 30.5268Z" fill="#C6C6C6"/>
<path d="M89.6162 50.1853C89.6663 50.071 89.6936 49.9382 89.7697 49.8452C91.2438 48.0427 93.1779 47.8023 95.2568 48.3765C97.1595 48.9021 98.5137 50.6664 98.5775 52.8112C98.6763 56.1361 98.6256 59.4654 98.6477 62.7929C98.6507 63.267 98.4329 63.4362 97.9807 63.4323C96.7158 63.4215 95.4503 63.4076 94.186 63.4397C93.5797 63.4552 93.3811 63.2286 93.3876 62.6318C93.4119 60.3486 93.4057 58.0652 93.3896 55.7819C93.3862 55.3002 93.342 54.8076 93.2303 54.3405C93.0323 53.5117 92.4038 52.9974 91.5858 52.9026C90.7617 52.8071 89.9525 53.2029 89.6232 53.994C89.4144 54.4955 89.2881 55.0669 89.2795 55.6094C89.2427 57.9408 89.2436 60.2732 89.2754 62.6048C89.2842 63.2458 89.0747 63.461 88.4387 63.4416C87.1992 63.4039 85.9574 63.413 84.7171 63.4383C84.1661 63.4495 83.9414 63.2817 83.9441 62.6915C83.9635 58.222 83.965 53.7525 83.9425 49.283C83.9394 48.6785 84.1768 48.5368 84.7182 48.5477C85.9341 48.5722 87.1522 48.5907 88.3664 48.5414C89.0655 48.513 89.3613 48.7343 89.2709 49.444C89.2458 49.6406 89.3136 49.8491 89.3387 50.0521C89.4312 50.0967 89.5238 50.141 89.6162 50.1853Z" fill="#C6C6C6"/>
<path d="M125.414 50.2625C125.504 50.0663 125.561 49.8445 125.69 49.6775C127.451 47.3895 132.536 47.3786 133.908 51.0624C134.223 51.9078 134.384 52.8534 134.403 53.7574C134.465 56.6954 134.417 59.6355 134.439 62.5745C134.443 63.1836 134.269 63.4611 133.612 63.4412C132.396 63.4044 131.179 63.4074 129.963 63.4405C129.355 63.457 129.162 63.2307 129.168 62.6333C129.194 60.3016 129.187 57.9695 129.17 55.6376C129.167 55.1813 129.117 54.7111 128.996 54.2728C128.772 53.4562 128.118 52.9613 127.298 52.8955C126.504 52.8318 125.706 53.2288 125.406 53.9899C125.189 54.5403 125.065 55.1607 125.054 55.7526C125.015 58.0354 125.019 60.3194 125.05 62.6024C125.059 63.2405 124.853 63.4616 124.214 63.4421C122.975 63.4042 121.733 63.4131 120.493 63.4391C119.94 63.4506 119.717 63.2791 119.72 62.6913C119.739 58.2218 119.739 53.7522 119.719 49.2827C119.716 48.6844 119.95 48.5355 120.496 48.5476C121.712 48.5747 122.93 48.5919 124.145 48.5421C124.849 48.5131 125.133 48.7463 125.046 49.4499C125.022 49.6473 125.091 49.8562 125.117 50.0599C125.216 50.1273 125.315 50.195 125.414 50.2625Z" fill="#C6C6C6"/>
<path d="M74.1159 45.7781C73.5206 45.7109 73.0413 45.6084 72.5626 45.6118C71.2038 45.6212 70.3288 46.4738 70.2126 47.805C70.1657 48.3416 70.3616 48.569 70.9015 48.5575C71.6796 48.541 72.4585 48.5708 73.2364 48.5504C73.7135 48.5378 73.9562 48.675 73.9401 49.2068C73.9109 50.1775 73.9141 51.15 73.9391 52.1209C73.9516 52.6115 73.7405 52.7539 73.284 52.7392C72.555 52.7158 71.8219 52.7742 71.0959 52.7223C70.3761 52.6709 70.1696 52.9712 70.1749 53.6494C70.198 56.5394 70.185 59.4298 70.1836 62.32C70.1831 63.4288 70.1813 63.4296 69.0397 63.4307C68.0424 63.4317 67.0452 63.4317 66.0479 63.4307C64.9517 63.4296 64.9505 63.4288 64.9502 62.3687C64.9495 59.4785 64.9514 56.5883 64.9489 53.6981C64.9481 52.7414 64.9415 52.7397 63.9588 52.7337C62.9146 52.7273 62.9141 52.7273 62.9134 51.718C62.9128 50.8923 62.934 50.0658 62.9061 49.2409C62.8893 48.7447 63.059 48.5062 63.5726 48.5541C63.7173 48.5677 63.8662 48.5396 64.0099 48.5572C64.7524 48.6486 64.9511 48.3104 64.9694 47.5927C65.116 41.8324 69.76 40.5469 73.4406 41.3653C73.6988 41.4227 74.0741 41.7605 74.0857 41.9837C74.1489 43.215 74.1159 44.451 74.1159 45.7781Z" fill="#C6C6C6"/>
<path d="M156.788 26.4903C160.248 26.4717 162.901 29.0839 162.928 32.5367C162.956 36.0949 160.193 38.9027 156.648 38.9186C153.209 38.9339 150.513 36.2847 150.491 32.8688C150.469 29.3313 153.254 26.5093 156.788 26.4903Z" fill="#C6C6C6"/>
<path d="M81.3898 55.9891C81.39 58.1962 81.3701 60.4035 81.4024 62.6101C81.4119 63.2554 81.1864 63.4602 80.5585 63.4417C79.3208 63.4052 78.0811 63.4206 76.8426 63.4344C76.3574 63.4398 76.1345 63.2589 76.1354 62.754C76.1433 58.2428 76.1421 53.7316 76.1361 49.2204C76.1355 48.774 76.2909 48.5485 76.7711 48.5535C78.1068 48.5675 79.443 48.5728 80.7786 48.551C81.3421 48.5418 81.3958 48.8546 81.394 49.2949C81.3845 51.5265 81.3897 53.7579 81.3898 55.9891Z" fill="#C6C6C6"/>
<path d="M81.7095 43.9093C81.723 45.5625 80.4355 46.8689 78.7736 46.8881C77.155 46.9069 75.7708 45.5519 75.7714 43.949C75.772 42.3613 77.0877 41.0415 78.6972 41.0141C80.3634 40.9857 81.6961 42.2667 81.7095 43.9093Z" fill="#C6C6C6"/>
</svg>
