<svg width="80" height="83" viewBox="0 0 80 83" fill="none" xmlns="http://www.w3.org/2000/svg">
<path d="M13.8687 15.2237C15.2758 15.2237 16.6852 15.2006 18.09 15.2421C18.3751 15.2513 18.7591 15.4357 18.92 15.6638C21.1111 18.7629 23.362 21.8274 25.4175 25.014C28.2363 29.3873 28.4731 34.0324 26.0061 38.6108C23.5413 43.1822 19.55 45.4495 14.3538 45.6569C7.12289 45.9449 2.6188 41.4541 1.01627 37.3089C-0.620746 33.0785 -0.30346 28.9748 2.14517 25.1707C4.22823 21.9334 6.51131 18.8205 8.73692 15.6776C8.90936 15.4334 9.33241 15.2536 9.6474 15.2444C11.0522 15.196 12.4616 15.2237 13.8687 15.2237ZM8.37135 33.2421C8.31387 35.4195 9.77155 36.9241 12.4639 37.4288C12.4639 38.2905 12.4639 39.1707 12.4639 40.0578C13.4227 40.0578 14.2917 40.0578 15.2574 40.0578C15.2574 39.1246 15.2574 38.2467 15.2574 37.3135C16.6645 37.3135 17.975 37.3135 19.3476 37.3135C19.3476 35.9011 19.366 34.5509 19.343 33.2029C19.3017 30.8412 17.5267 29.0923 15.1562 29.0555C14.294 29.0417 13.4318 29.0693 12.5697 29.0463C11.6063 29.0209 11.1074 28.5002 11.0729 27.5278C11.0591 27.1361 11.0706 26.7421 11.0706 26.2859C12.3144 26.2859 13.4594 26.3228 14.6021 26.2744C15.646 26.2306 16.4162 26.514 16.6346 27.6131C17.5566 27.6131 18.4349 27.6131 19.5845 27.6131C19.1591 26.673 18.8947 25.8158 18.4188 25.1039C17.6922 24.0163 16.515 23.6039 15.17 23.4679C15.17 22.5417 15.17 21.6661 15.17 20.7974C14.2274 20.7974 13.3767 20.7974 12.4317 20.7974C12.4317 21.7145 12.4317 22.59 12.4317 23.5578C11.0062 23.5578 9.67269 23.5578 8.30927 23.5578C8.30927 25.0048 8.28858 26.3596 8.31387 27.7099C8.35985 30.0163 10.1371 31.7698 12.457 31.8135C13.3468 31.8297 14.2389 31.8112 15.1309 31.8205C15.8897 31.8297 16.4139 32.2145 16.5426 32.9564C16.6323 33.4725 16.561 34.0163 16.561 34.5831C15.3356 34.5831 14.2136 34.5417 13.0985 34.5947C12.027 34.6476 11.2269 34.3711 11.0154 33.2398C10.0819 33.2421 9.22665 33.2421 8.37135 33.2421Z" fill="#444444"/>
<path d="M55.6378 75.6317C56.2402 74.9635 56.815 74.3276 57.4381 73.6386C55.9873 71.8299 54.1296 70.5672 51.6074 70.5534C48.6759 70.5373 45.7444 70.5649 42.813 70.5396C40.7575 70.5234 39.1182 69.1271 38.7296 67.1248C38.4606 65.7446 39.0446 65.0165 40.4379 65.0142C46.3307 65.0096 52.2235 65.0165 58.114 65.0096C59.6292 65.0073 61.0616 65.3621 62.2273 66.3138C63.7194 67.5303 65.345 68.0304 67.2372 67.7907C67.7959 67.7193 68.3707 67.7792 68.9777 67.7792C68.9777 71.482 68.9777 75.0995 68.9777 78.8437C68.6765 78.8437 68.373 78.8437 68.0695 78.8437C57.9807 78.8437 47.8919 78.8414 37.8031 78.8437C34.2646 78.8437 31.4826 77.3944 29.4502 74.4958C27.7166 72.0211 25.9876 69.5442 24.2609 67.0649C23.1228 65.429 23.2769 63.7861 24.6495 62.7907C26.0313 61.7861 28.204 62.1179 29.2731 63.5304C30.9239 65.7101 32.5747 67.8898 34.1796 70.1018C35.7729 72.2953 37.8766 73.3575 40.5897 73.323C43.981 73.2792 47.3746 73.3621 50.7636 73.2907C52.4994 73.2539 53.9157 73.7516 55.04 75.081C55.2056 75.2746 55.4171 75.4267 55.6378 75.6317Z" fill="#773DCD"/>
<path d="M49.7428 62.2469C49.7428 61.2999 49.7428 60.4473 49.7428 59.498C51.0924 59.498 52.4259 59.498 53.81 59.498C53.81 57.8575 53.9227 56.2999 53.7824 54.7676C53.5939 52.7308 51.8304 51.2423 49.775 51.1893C48.9703 51.1685 48.1655 51.187 47.3608 51.1824C46.0227 51.1755 45.5721 50.7123 45.5675 49.3483C45.5675 49.0672 45.5675 48.7861 45.5675 48.4289C47.0412 48.4289 48.4437 48.3897 49.8416 48.445C50.6073 48.475 50.9751 49.0487 51.12 49.7607C52.0282 49.7607 52.911 49.7607 53.7939 49.7607C53.8192 47.5579 52.4075 46.1017 49.7221 45.5741C49.7221 44.7285 49.7221 43.8713 49.7221 42.9496C48.7978 42.9496 47.9241 42.9496 46.9585 42.9496C46.9585 43.8229 46.9585 44.6985 46.9585 45.6363C45.5537 45.6363 44.2408 45.6363 42.9533 45.6363C42.9533 47.4128 42.7717 49.1478 43.0016 50.8252C43.2545 52.657 44.9743 53.8874 46.8366 53.945C47.6689 53.9704 48.5035 53.9473 49.3381 53.9543C50.6188 53.9635 51.0809 54.4381 51.0878 55.7446C51.0901 56.0303 51.0878 56.316 51.0878 56.6916C49.5933 56.6916 48.1288 56.7861 46.6918 56.6386C46.2089 56.5902 45.7882 55.922 45.1421 55.369C44.6133 55.369 43.7557 55.369 42.9027 55.369C42.7142 57.452 44.3443 59.1478 46.9033 59.528C46.9033 60.399 46.9033 61.2791 46.9033 62.2515C44.8478 62.2515 42.8153 62.263 40.7852 62.2354C40.5644 62.2331 40.3092 62.0487 40.1322 61.8828C36.3409 58.3321 34.9774 53.9957 36.4696 49.0188C37.948 44.0925 41.4014 41.1086 46.4871 40.2976C51.9799 39.422 57.1875 42.2745 59.5419 47.2377C61.8893 52.1847 60.7719 57.9727 56.707 61.6962C56.369 62.005 55.8172 62.2123 55.3551 62.2261C53.518 62.2814 51.6787 62.2469 49.7428 62.2469Z" fill="#773DCD"/>
<path d="M48.3265 31.818C45.5399 28.0922 42.8567 24.5069 40.0724 20.7857C41.5048 20.7857 42.7992 20.7857 44.0799 20.7857C44.8294 13.371 42.5601 6.32488 35.4258 1.9424C34.6326 1.45392 34.3406 0.951613 34.6326 0C40.0356 0.138249 44.5696 2.18203 48.1356 6.29263C51.7178 10.4217 52.8191 15.3364 52.419 20.7281C53.8261 20.7281 55.1091 20.7281 56.6219 20.7281C53.8077 24.4885 51.1085 28.0991 48.3265 31.818Z" fill="#773DCD"/>
<path d="M22.0101 83.0002C16.6093 82.8574 12.0753 80.8159 8.50929 76.7099C4.92486 72.5832 3.81666 67.6707 4.22361 62.2744C2.81881 62.2744 1.53817 62.2744 0.0161133 62.2744C2.83261 58.5118 5.53185 54.9012 8.31156 51.1846C11.0752 54.8758 13.7698 58.4772 16.5656 62.2099C15.1378 62.2099 13.8457 62.2099 12.565 62.2099C11.8132 69.4772 13.9813 76.6108 21.21 81.0509C22.0009 81.5371 22.3021 82.0417 22.0101 83.0002Z" fill="#773DCD"/>
<path d="M21.7043 2.37556C20.7478 5.25575 19.8373 8.0046 18.9223 10.7511C18.3544 12.4562 18.3521 12.4562 16.5472 12.4562C14.3377 12.4562 12.1259 12.47 9.91638 12.4378C9.64737 12.4332 9.22202 12.2419 9.13925 12.0299C8.09542 9.35713 7.10218 6.66589 6.05835 3.87787C7.90919 3.5645 9.69795 3.23962 11.4959 2.98386C11.6982 2.95621 12.0178 3.26266 12.1719 3.49077C13.2249 5.02764 14.248 6.58524 15.3677 8.26497C15.7011 7.61059 15.9862 7.0645 16.2621 6.51381C16.9841 5.07603 17.6853 3.62672 18.4417 2.20736C18.5613 1.98386 18.9522 1.7304 19.1729 1.76727C19.9868 1.8963 20.7823 2.14285 21.7043 2.37556Z" fill="#444444"/>
<path d="M79.9999 81.5672C79.0894 81.5672 78.2364 81.5672 77.3237 81.5672C77.3237 77.9082 77.3237 74.2907 77.3237 70.6087C76.3925 70.6087 75.5211 70.6087 74.5532 70.6087C74.5532 74.2446 74.5532 77.8852 74.5532 81.5649C73.6105 81.5649 72.7598 81.5649 71.8447 81.5649C71.8447 76.0856 71.8447 70.6041 71.8447 65.0672C72.7115 65.0672 73.5829 65.0672 74.5187 65.0672C74.5187 65.9451 74.5187 66.7976 74.5187 67.7147C75.4521 67.7147 76.3235 67.7147 77.2915 67.7147C77.2915 66.846 77.2915 65.9681 77.2915 65.0557C78.2364 65.0557 79.0871 65.0557 79.9999 65.0557C79.9999 70.5372 79.9999 76.0188 79.9999 81.5672Z" fill="#773DCD"/>
<path d="M8.37125 33.2422C9.22655 33.2422 10.0818 33.2422 11.0176 33.2422C11.2291 34.3735 12.0292 34.65 13.1007 34.597C14.2181 34.5417 15.3378 34.5855 16.5632 34.5855C16.5632 34.021 16.6368 33.4749 16.5448 32.9588C16.4138 32.2169 15.8919 31.8321 15.1331 31.8228C14.2411 31.8113 13.3513 31.8321 12.4592 31.8159C10.1393 31.7722 8.36205 30.0187 8.31607 27.7122C8.28848 26.3597 8.31147 25.0072 8.31147 23.5602C9.67259 23.5602 11.0061 23.5602 12.4339 23.5602C12.4339 22.5947 12.4339 21.7169 12.4339 20.7998C13.3789 20.7998 14.2296 20.7998 15.1722 20.7998C15.1722 21.6685 15.1722 22.5463 15.1722 23.4703C16.5172 23.6063 17.6921 24.0187 18.421 25.1063C18.8992 25.8182 19.1613 26.6754 19.5867 27.6155C18.4371 27.6155 17.5588 27.6155 16.6368 27.6155C16.4184 26.5164 15.6482 26.233 14.6043 26.2768C13.4616 26.3252 12.3166 26.2883 11.0728 26.2883C11.0728 26.7445 11.0613 27.1385 11.0751 27.5302C11.1096 28.5026 11.6085 29.0233 12.5719 29.0487C13.434 29.0717 14.2962 29.044 15.1584 29.0579C17.5289 29.0947 19.3039 30.8459 19.3452 33.2053C19.3682 34.5533 19.3498 35.9012 19.3498 37.3159C17.9772 37.3159 16.6644 37.3159 15.2596 37.3159C15.2596 38.2491 15.2596 39.127 15.2596 40.0602C14.2939 40.0602 13.4226 40.0602 12.4661 40.0602C12.4661 39.1731 12.4661 38.2929 12.4661 37.4311C9.77375 36.9219 8.31377 35.4173 8.37125 33.2422Z" fill="white"/>
</svg>
