<svg width="80" height="83" viewBox="0 0 80 83" fill="none" xmlns="http://www.w3.org/2000/svg">
<path d="M13.8688 15.2237C15.2759 15.2237 16.6853 15.2006 18.0901 15.2421C18.3752 15.2513 18.7591 15.4357 18.9201 15.6638C21.1112 18.7629 23.3621 21.8274 25.4176 25.014C28.2364 29.3873 28.4732 34.0324 26.0062 38.6108C23.5414 43.1822 19.5501 45.4495 14.3539 45.6569C7.12299 45.9449 2.61889 41.4541 1.01636 37.3089C-0.620655 33.0785 -0.303368 28.9748 2.14526 25.1707C4.22832 21.9334 6.5114 18.8205 8.73701 15.6776C8.90945 15.4334 9.3325 15.2536 9.64749 15.2444C11.0523 15.196 12.4617 15.2237 13.8688 15.2237ZM8.37144 33.2421C8.31396 35.4195 9.77164 36.9241 12.464 37.4288C12.464 38.2905 12.464 39.1707 12.464 40.0578C13.4227 40.0578 14.2918 40.0578 15.2575 40.0578C15.2575 39.1246 15.2575 38.2467 15.2575 37.3135C16.6646 37.3135 17.9751 37.3135 19.3477 37.3135C19.3477 35.9011 19.3661 34.5509 19.3431 33.2029C19.3017 30.8412 17.5268 29.0923 15.1563 29.0555C14.2941 29.0417 13.4319 29.0693 12.5697 29.0463C11.6064 29.0209 11.1075 28.5002 11.073 27.5278C11.0592 27.1361 11.0707 26.7421 11.0707 26.2859C12.3145 26.2859 13.4595 26.3228 14.6022 26.2744C15.646 26.2306 16.4163 26.514 16.6347 27.6131C17.5567 27.6131 18.435 27.6131 19.5845 27.6131C19.1592 26.673 18.8948 25.8159 18.4189 25.1039C17.6923 24.0163 16.5151 23.6039 15.1701 23.4679C15.1701 22.5417 15.1701 21.6661 15.1701 20.7974C14.2275 20.7974 13.3768 20.7974 12.4318 20.7974C12.4318 21.7145 12.4318 22.59 12.4318 23.5578C11.0063 23.5578 9.67278 23.5578 8.30936 23.5578C8.30936 25.0048 8.28867 26.3596 8.31396 27.7099C8.35995 30.0163 10.1372 31.7698 12.4571 31.8135C13.3469 31.8297 14.239 31.8112 15.131 31.8205C15.8898 31.8297 16.414 32.2145 16.5427 32.9564C16.6324 33.4725 16.5611 34.0163 16.5611 34.5831C15.3357 34.5831 14.2137 34.5417 13.0986 34.5947C12.0271 34.6476 11.227 34.3711 11.0155 33.2398C10.082 33.2421 9.22674 33.2421 8.37144 33.2421Z" fill="#773DCD"/>
<path d="M55.638 75.6317C56.2404 74.9635 56.8152 74.3276 57.4383 73.6386C55.9875 71.8299 54.1297 70.5672 51.6075 70.5534C48.6761 70.5373 45.7446 70.5649 42.8132 70.5396C40.7577 70.5234 39.1184 69.1271 38.7298 67.1248C38.4608 65.7446 39.0448 65.0165 40.4381 65.0142C46.3309 65.0096 52.2237 65.0165 58.1142 65.0096C59.6294 65.0073 61.0618 65.3621 62.2275 66.3138C63.7196 67.5303 65.3451 68.0304 67.2374 67.7907C67.7961 67.7193 68.3709 67.7792 68.9779 67.7792C68.9779 71.482 68.9779 75.0995 68.9779 78.8437C68.6767 78.8437 68.3732 78.8437 68.0697 78.8437C57.9809 78.8437 47.8921 78.8414 37.8033 78.8437C34.2648 78.8437 31.4828 77.3944 29.4503 74.4958C27.7168 72.0211 25.9878 69.5442 24.2611 67.0649C23.123 65.429 23.277 63.7861 24.6496 62.7907C26.0315 61.7861 28.2042 62.1179 29.2733 63.5304C30.9241 65.7101 32.5749 67.8898 34.1798 70.1018C35.7731 72.2953 37.8768 73.3575 40.5899 73.323C43.9812 73.2792 47.3747 73.3621 50.7637 73.2907C52.4996 73.2539 53.9159 73.7516 55.0402 75.081C55.2058 75.2746 55.4173 75.4267 55.638 75.6317Z" fill="#777777"/>
<path d="M49.7429 62.2469C49.7429 61.2999 49.7429 60.4473 49.7429 59.498C51.0925 59.498 52.426 59.498 53.8101 59.498C53.8101 57.8575 53.9228 56.2999 53.7826 54.7676C53.594 52.7308 51.8306 51.2423 49.7751 51.1893C48.9704 51.1685 48.1657 51.187 47.361 51.1824C46.0228 51.1755 45.5722 50.7123 45.5676 49.3483C45.5676 49.0672 45.5676 48.7861 45.5676 48.4289C47.0414 48.4289 48.4439 48.3897 49.8418 48.445C50.6074 48.475 50.9753 49.0487 51.1201 49.7607C52.0283 49.7607 52.9112 49.7607 53.7941 49.7607C53.8193 47.5579 52.4076 46.1017 49.7222 45.5741C49.7222 44.7285 49.7222 43.8713 49.7222 42.9496C48.7979 42.9496 47.9242 42.9496 46.9586 42.9496C46.9586 43.8229 46.9586 44.6985 46.9586 45.6363C45.5538 45.6363 44.241 45.6363 42.9534 45.6363C42.9534 47.4128 42.7718 49.1478 43.0017 50.8252C43.2546 52.657 44.9744 53.8874 46.8367 53.945C47.669 53.9704 48.5036 53.9473 49.3382 53.9543C50.6189 53.9635 51.081 54.4381 51.0879 55.7446C51.0902 56.0303 51.0879 56.316 51.0879 56.6916C49.5935 56.6916 48.1289 56.7861 46.6919 56.6386C46.2091 56.5902 45.7883 55.922 45.1422 55.369C44.6134 55.369 43.7558 55.369 42.9028 55.369C42.7143 57.452 44.3444 59.1478 46.9034 59.528C46.9034 60.399 46.9034 61.2791 46.9034 62.2515C44.8479 62.2515 42.8155 62.263 40.7853 62.2354C40.5646 62.2331 40.3094 62.0487 40.1323 61.8828C36.341 58.3321 34.9776 53.9957 36.4697 49.0188C37.9481 44.0925 41.4015 41.1086 46.4873 40.2976C51.98 39.422 57.1876 42.2745 59.542 47.2377C61.8895 52.1847 60.7721 57.9727 56.7071 61.6962C56.3691 62.005 55.8173 62.2123 55.3552 62.2261C53.5182 62.2814 51.6788 62.2469 49.7429 62.2469Z" fill="#773DCD"/>
<path d="M48.3266 31.818C45.54 28.0922 42.8568 24.5069 40.0725 20.7857C41.5049 20.7857 42.7994 20.7857 44.08 20.7857C44.8295 13.371 42.5603 6.32488 35.4259 1.9424C34.6327 1.45392 34.3407 0.951613 34.6327 0C40.0358 0.138249 44.5697 2.18203 48.1358 6.29263C51.7179 10.4217 52.8192 15.3364 52.4191 20.7281C53.8262 20.7281 55.1092 20.7281 56.622 20.7281C53.8078 24.4885 51.1086 28.0991 48.3266 31.818Z" fill="#777777"/>
<path d="M22.0102 83.0002C16.6094 82.8574 12.0754 80.8159 8.50939 76.7099C4.92497 72.5832 3.81677 67.6707 4.22372 62.2744C2.81892 62.2744 1.53828 62.2744 0.0162201 62.2744C2.83272 58.5118 5.53196 54.9012 8.31166 51.1846C11.0753 54.8758 13.7699 58.4772 16.5657 62.2099C15.1379 62.2099 13.8458 62.2099 12.5651 62.2099C11.8133 69.4772 13.9814 76.6108 21.2101 81.0509C22.001 81.5371 22.3022 82.0417 22.0102 83.0002Z" fill="#777777"/>
<path d="M21.7044 2.37556C20.7479 5.25575 19.8375 8.0046 18.9224 10.7511C18.3545 12.4562 18.3522 12.4562 16.5473 12.4562C14.3378 12.4562 12.126 12.47 9.9165 12.4378C9.64749 12.4332 9.22214 12.2419 9.13937 12.0299C8.09555 9.35713 7.1023 6.66589 6.05847 3.87787C7.90931 3.5645 9.69808 3.23962 11.496 2.98386C11.6984 2.95621 12.0179 3.26266 12.172 3.49077C13.225 5.02764 14.2482 6.58524 15.3679 8.26497C15.7012 7.61059 15.9863 7.0645 16.2622 6.51381C16.9842 5.07603 17.6854 3.62672 18.4419 2.20736C18.5614 1.98386 18.9523 1.7304 19.173 1.76727C19.9869 1.8963 20.7824 2.14285 21.7044 2.37556Z" fill="#773DCD"/>
<path d="M80.0001 81.5672C79.0897 81.5672 78.2367 81.5672 77.3239 81.5672C77.3239 77.9082 77.3239 74.2907 77.3239 70.6087C76.3927 70.6087 75.5213 70.6087 74.5534 70.6087C74.5534 74.2446 74.5534 77.8852 74.5534 81.5649C73.6107 81.5649 72.76 81.5649 71.8449 81.5649C71.8449 76.0856 71.8449 70.6041 71.8449 65.0672C72.7117 65.0672 73.5831 65.0672 74.5189 65.0672C74.5189 65.9451 74.5189 66.7976 74.5189 67.7147C75.4523 67.7147 76.3237 67.7147 77.2917 67.7147C77.2917 66.846 77.2917 65.9681 77.2917 65.0557C78.2367 65.0557 79.0874 65.0557 80.0001 65.0557C80.0001 70.5372 80.0001 76.0188 80.0001 81.5672Z" fill="#777777"/>
<path d="M8.37143 33.2422C9.22673 33.2422 10.082 33.2422 11.0178 33.2422C11.2293 34.3735 12.0294 34.65 13.1008 34.597C14.2183 34.5417 15.338 34.5855 16.5634 34.5855C16.5634 34.021 16.637 33.4749 16.545 32.9588C16.414 32.2169 15.8921 31.8321 15.1333 31.8228C14.2412 31.8113 13.3515 31.8321 12.4594 31.8159C10.1395 31.7722 8.36224 30.0187 8.31625 27.7122C8.28866 26.3597 8.31166 25.0072 8.31166 23.5602C9.67277 23.5602 11.0063 23.5602 12.4341 23.5602C12.4341 22.5947 12.4341 21.7169 12.4341 20.7998C13.379 20.7998 14.2297 20.7998 15.1724 20.7998C15.1724 21.6685 15.1724 22.5463 15.1724 23.4703C16.5174 23.6063 17.6923 24.0187 18.4212 25.1063C18.8994 25.8182 19.1615 26.6754 19.5868 27.6155C18.4372 27.6155 17.559 27.6155 16.637 27.6155C16.4186 26.5164 15.6483 26.233 14.6045 26.2768C13.4618 26.3252 12.3168 26.2883 11.073 26.2883C11.073 26.7445 11.0615 27.1385 11.0753 27.5302C11.1098 28.5026 11.6087 29.0233 12.572 29.0487C13.4342 29.0717 14.2964 29.044 15.1586 29.0579C17.5291 29.0947 19.304 30.8459 19.3454 33.2053C19.3684 34.5533 19.35 35.9012 19.35 37.3159C17.9774 37.3159 16.6646 37.3159 15.2598 37.3159C15.2598 38.2491 15.2598 39.127 15.2598 40.0602C14.2941 40.0602 13.4227 40.0602 12.4663 40.0602C12.4663 39.1731 12.4663 38.2929 12.4663 37.4311C9.77393 36.9219 8.31395 35.4173 8.37143 33.2422Z" fill="white"/>
</svg>
