<svg width="80" height="81" viewBox="0 0 80 81" fill="none" xmlns="http://www.w3.org/2000/svg">
<path d="M79.7349 53.7902C77.7997 40.7995 64.8321 31.9018 52.0293 34.7842C40.001 37.4913 32.1687 48.6327 34.1017 60.8365C35.6172 70.3896 41.3203 76.6178 50.5347 79.5649C51.9813 80.0262 53.5219 80.1952 55.0186 80.5H58.7699C59.534 80.3747 60.3042 80.2725 61.0641 80.1243C73.5182 77.7031 81.5969 66.3029 79.7349 53.7902ZM59.8471 70.2038C59.6696 70.2372 59.4964 70.2894 59.248 70.352V75.2778H54.5907V70.3771C50.3301 69.49 48.0129 66.9604 47.6768 62.5397H52.3195C52.4176 62.9425 52.4781 63.3516 52.6138 63.7356C53.0209 64.8732 54.0647 65.6204 55.3026 65.6517C56.3421 65.6767 57.3859 65.6767 58.4276 65.6538C60.0851 65.6183 61.3689 64.3493 61.3981 62.7442C61.4294 61.1559 60.1706 59.8201 58.5132 59.7449C57.4736 59.699 56.4298 59.7387 55.3881 59.7282C51.3029 59.6865 48.1465 56.754 47.752 52.6401C47.3888 48.831 50.0483 45.3329 53.9185 44.5293C54.1189 44.4875 54.3131 44.427 54.549 44.3644V39.4637H59.2229V44.3268C63.9825 45.8755 66.2119 48.4282 66.047 52.1475H61.4586C61.4169 51.9263 61.3772 51.6988 61.3292 51.4734C61.0182 50.0353 59.9264 49.1107 58.461 49.0815C57.4193 49.0606 56.3776 49.0585 55.3359 49.0815C53.6576 49.119 52.3779 50.4527 52.4051 52.0995C52.4322 53.7296 53.6993 54.9987 55.3401 55.0425C56.745 55.0801 58.1625 54.9987 59.5486 55.1802C63.2623 55.6645 66.0115 58.8412 66.0867 62.5919C66.1618 66.2591 63.4835 69.5234 59.8471 70.2038Z" fill="#444444"/>
<path d="M16.7251 80.4999C16.7439 80.1639 16.7773 79.8278 16.7773 79.4918C16.7794 64.1113 16.7794 48.7308 16.7794 33.3502C16.7794 33.0184 16.7794 32.6886 16.7794 32.3066C20.8646 32.3066 24.8539 32.3066 28.9162 32.3066C28.9162 48.3989 28.9162 64.4494 28.9162 80.502C24.8518 80.4999 20.7874 80.4999 16.7251 80.4999Z" fill="#773DCD"/>
<path d="M0 44.876C3.99969 44.876 8.00146 44.876 12.0492 44.876C12.0659 45.1932 12.0888 45.4458 12.0888 45.6983C12.0909 57.0401 12.0909 68.384 12.0888 79.7258C12.0888 79.9846 12.0533 80.2414 12.0366 80.5002C8.02442 80.5002 4.01221 80.5002 0.00208752 80.5002C0 68.6261 0 56.75 0 44.876Z" fill="#773DCD"/>
<path d="M33.605 80.5C33.605 77.9453 33.605 75.3905 33.605 72.8379C35.8031 75.8643 38.4125 78.3836 41.4207 80.5C38.8154 80.5 36.2102 80.5 33.605 80.5Z" fill="#773DCD"/>
<path d="M33.5841 42.1374C33.5841 32.7262 33.5841 23.5489 33.5841 14.311C31.9663 14.311 30.4111 14.311 28.6221 14.311C32.3608 9.62521 35.9785 5.09182 39.6421 0.5C43.2952 5.07721 46.9067 9.60016 50.6329 14.2692C48.8794 14.2692 47.3095 14.2692 45.6374 14.2692C45.6374 14.6574 45.6374 14.9601 45.6374 15.2606C45.6374 20.5976 45.6354 25.9345 45.6395 31.2694C45.6395 31.668 45.6479 31.9832 45.1719 32.2045C40.5585 34.348 36.8239 37.5435 33.9327 41.7241C33.8784 41.8055 33.8075 41.8765 33.5841 42.1374Z" fill="#773DCD"/>
</svg>
