<svg width="80" height="81" viewBox="0 0 80 81" fill="none" xmlns="http://www.w3.org/2000/svg">
<path d="M79.735 53.7902C77.7999 40.7995 64.8322 31.9018 52.0294 34.7842C40.0012 37.4913 32.1688 48.6327 34.1018 60.8365C35.6174 70.3896 41.3205 76.6178 50.5348 79.5649C51.9814 80.0262 53.522 80.1952 55.0188 80.5H58.77C59.5341 80.3747 60.3044 80.2725 61.0642 80.1243C73.5184 77.7031 81.5971 66.3029 79.735 53.7902ZM59.8472 70.2038C59.6698 70.2372 59.4965 70.2894 59.2481 70.352V75.2778H54.5908V70.3771C50.3302 69.49 48.0131 66.9604 47.677 62.5397H52.3196C52.4177 62.9425 52.4783 63.3516 52.6139 63.7356C53.021 64.8732 54.0648 65.6204 55.3027 65.6517C56.3423 65.6767 57.386 65.6767 58.4277 65.6538C60.0852 65.6183 61.369 64.3493 61.3982 62.7442C61.4295 61.1559 60.1708 59.8201 58.5133 59.7449C57.4737 59.699 56.4299 59.7387 55.3883 59.7282C51.303 59.6865 48.1467 56.754 47.7521 52.6401C47.3889 48.831 50.0484 45.3329 53.9186 44.5293C54.1191 44.4875 54.3132 44.427 54.5491 44.3644V39.4637H59.223V44.3268C63.9826 45.8755 66.2121 48.4282 66.0471 52.1475H61.4588C61.417 51.9263 61.3774 51.6988 61.3293 51.4734C61.0183 50.0353 59.9265 49.1107 58.4611 49.0815C57.4194 49.0606 56.3777 49.0585 55.3361 49.0815C53.6577 49.119 52.3781 50.4527 52.4052 52.0995C52.4323 53.7296 53.6995 54.9987 55.3403 55.0425C56.7451 55.0801 58.1626 54.9987 59.5487 55.1802C63.2624 55.6645 66.0116 58.8412 66.0868 62.5919C66.1619 66.2591 63.4837 69.5234 59.8472 70.2038Z" fill="#773DCD"/>
<path d="M16.7253 80.4999C16.7441 80.1639 16.7775 79.8278 16.7775 79.4918C16.7796 64.1113 16.7796 48.7308 16.7796 33.3502C16.7796 33.0184 16.7796 32.6886 16.7796 32.3066C20.8649 32.3066 24.8541 32.3066 28.9164 32.3066C28.9164 48.3989 28.9164 64.4494 28.9164 80.502C24.852 80.4999 20.7876 80.4999 16.7253 80.4999Z" fill="#777777"/>
<path d="M0.00012207 44.876C3.99981 44.876 8.00158 44.876 12.0493 44.876C12.066 45.1932 12.0889 45.4458 12.0889 45.6983C12.091 57.0401 12.091 68.384 12.0889 79.7258C12.0889 79.9846 12.0535 80.2414 12.0368 80.5002C8.02455 80.5002 4.01233 80.5002 0.00220959 80.5002C0.00012207 68.6261 0.00012207 56.75 0.00012207 44.876Z" fill="#777777"/>
<path d="M33.605 80.5C33.605 77.9453 33.605 75.3905 33.605 72.8379C35.8032 75.8643 38.4126 78.3836 41.4207 80.5C38.8155 80.5 36.2102 80.5 33.605 80.5Z" fill="#777777"/>
<path d="M33.5841 42.1374C33.5841 32.7262 33.5841 23.5489 33.5841 14.311C31.9663 14.311 30.4111 14.311 28.6221 14.311C32.3608 9.62521 35.9785 5.09182 39.6421 0.5C43.2953 5.07721 46.9067 9.60016 50.6329 14.2692C48.8794 14.2692 47.3096 14.2692 45.6375 14.2692C45.6375 14.6574 45.6375 14.9601 45.6375 15.2606C45.6375 20.5976 45.6354 25.9345 45.6396 31.2694C45.6396 31.668 45.6479 31.9832 45.172 32.2045C40.5585 34.348 36.824 37.5435 33.9328 41.7241C33.8785 41.8055 33.8075 41.8765 33.5841 42.1374Z" fill="#777777"/>
</svg>
