<svg width="80" height="79" viewBox="0 0 80 79" fill="none" xmlns="http://www.w3.org/2000/svg">
<path d="M79.5596 76.3221C78.7872 78.0168 77.4261 78.9502 75.5619 78.967C71.6832 79.0005 67.8045 78.9775 63.9258 78.9775C51.8221 78.9775 39.7162 78.9607 27.6125 79.0005C26.1532 79.0047 25.0155 78.4992 23.9947 77.5449C20.2391 74.0296 16.4836 70.5164 12.726 67.0032C9.44639 63.9367 6.17099 60.8619 2.88306 57.8038C1.72237 56.7257 0.505315 55.7064 0.00012207 54.1123V52.2267C0.167128 52.1785 0.129552 52.0254 0.167128 51.91C1.22553 48.5667 5.04161 47.5243 7.6135 49.9007C10.4693 52.5413 13.3001 55.2114 16.1412 57.8667C20.2809 61.7365 24.4226 65.6021 28.5519 69.4823C28.9214 69.8305 29.2909 69.9669 29.794 69.9648C44.8642 69.9543 59.9365 69.9627 75.0087 69.9459C76.5535 69.9438 77.9042 70.3234 78.9 71.5483C80.0711 72.9893 80.3362 74.6169 79.5596 76.3221Z" fill="#777777"/>
<path d="M39.1985 49.5037C39.8081 49.9714 40.3634 50.3615 40.8727 50.802C41.2005 51.0851 41.4447 50.8964 41.714 50.7579C44.2108 49.4764 46.7158 48.2137 49.1959 46.9007C50.987 45.9527 52.7197 45.8835 54.4002 47.0958C54.7384 47.3391 54.9033 47.1797 55.1267 46.9972C55.9596 46.3239 56.8051 45.657 57.9011 45.4787C59.6504 45.1955 61.1201 45.7262 62.3392 47.0266C65.2138 50.0951 68.126 53.1301 70.9755 56.2218C71.6227 56.9244 72.249 57.2663 73.2385 57.239C75.3782 57.1803 77.0775 58.4073 77.7706 60.3034C78.8979 63.3845 76.66 66.6523 73.3658 66.6838C70.1134 66.7131 66.8588 66.6901 63.6064 66.6901C53.9764 66.6901 44.3465 66.6712 34.7165 66.7027C32.0611 66.711 29.8023 65.8721 27.8463 64.0599C23.4603 59.9971 19.0367 55.9785 14.6403 51.9283C12.4755 49.9336 12.8011 47.2384 15.3626 45.7681C17.3917 44.6041 19.425 43.4463 21.4666 42.3011C24.6105 40.5371 27.6626 40.4847 30.5017 42.9303C31.1822 43.5155 31.6728 43.5197 32.4327 43.0457C34.9461 41.4747 37.5076 39.9771 40.0753 38.4963C42.8288 36.9085 46.1084 38.3621 46.7931 41.4348C47.2064 43.2869 46.3735 45.2018 44.6408 46.2589C42.8664 47.3433 41.0669 48.3899 39.1985 49.5037Z" fill="#777777"/>
<path d="M38.9459 18.919C38.9668 8.4423 47.4361 -0.0355444 57.8489 0.000112063C68.2283 0.0336711 76.637 8.55346 76.5869 18.984C76.5368 29.4481 68.0947 37.9218 57.7466 37.8945C47.3922 37.8673 38.925 29.3202 38.9459 18.919Z" fill="#777777"/>
<path d="M10.6321 31.598C14.586 31.64 17.9386 35.0588 17.8948 39.0083C17.8572 42.5823 15.0891 45.3257 11.5694 45.2775C7.5968 45.2251 4.25877 41.7601 4.32139 37.7582C4.37776 34.2051 7.08743 31.5624 10.6321 31.598Z" fill="#773DCD"/>
<path d="M20.4625 22.6655C20.4625 24.4189 20.4667 26.1724 20.4604 27.9258C20.4563 28.9284 20.0033 29.4633 19.1912 29.4507C18.4125 29.4402 17.9658 28.9137 17.9658 27.9636C17.9616 24.4042 17.9616 20.8449 17.9658 17.2876C17.9679 16.3039 18.4438 15.7376 19.2329 15.7502C20.0158 15.7628 20.4583 16.3249 20.4625 17.3275C20.4667 19.1061 20.4625 20.8847 20.4625 22.6655Z" fill="#777777"/>
<path d="M25.5917 28.7579C25.5917 26.9793 25.5854 25.1986 25.5938 23.42C25.5979 22.4887 26.0677 21.9245 26.8171 21.9161C27.5519 21.9077 28.0843 22.4992 28.0884 23.3969C28.0989 26.9814 28.0968 30.5659 28.0884 34.1505C28.0863 35.0649 27.5853 35.6396 26.8421 35.6501C26.0885 35.6585 25.6 35.0964 25.5959 34.1756C25.5854 32.3697 25.5917 30.5638 25.5917 28.7579Z" fill="#777777"/>
<path d="M35.6976 22.6627C35.6976 24.4413 35.7102 26.2199 35.6935 27.9986C35.6851 28.9424 35.2071 29.4626 34.4284 29.4521C33.6769 29.4437 33.2155 28.9424 33.2051 28.0405C33.1863 26.3919 33.1988 24.7454 33.1988 23.0969C33.1988 21.1357 33.1884 19.1725 33.2051 17.2114C33.2134 16.2613 33.7645 15.6887 34.5432 15.7495C35.2572 15.8062 35.6893 16.341 35.6955 17.2471C35.706 19.053 35.6976 20.8568 35.6976 22.6627Z" fill="#777777"/>
<path d="M51.4317 64.1339C48.9078 64.1444 46.3839 64.159 43.86 64.1632C40.737 64.1695 37.6119 64.1486 34.4889 64.1716C32.6581 64.1842 31.0737 63.6074 29.7209 62.3678C25.241 58.2527 20.7569 54.1438 16.2811 50.0244C15.469 49.2756 15.5421 48.552 16.4857 48.0109C18.6067 46.7923 20.7256 45.5674 22.8695 44.3928C24.9779 43.2371 26.9695 43.2581 28.9548 44.8479C31.9275 47.2264 35.0025 49.4728 38.0315 51.78C38.234 51.9331 38.4866 52.0421 38.5952 52.3043C38.5534 52.34 38.52 52.3777 38.4762 52.4029C36.5285 53.5355 36.5285 53.5376 34.7457 52.1995C32.3888 50.4313 30.0549 48.6317 27.6709 46.9034C24.8255 44.8395 21.0491 46.4441 20.5418 49.9279C20.3018 51.5828 20.8759 53.0133 22.1952 54.02C25.9257 56.8662 29.6792 59.6852 33.4618 62.4622C34.967 63.5676 36.6162 63.5151 38.2549 62.672C40.8456 61.3401 43.4425 60.025 46.0249 58.6763C46.4883 58.4351 46.8453 58.3575 47.2461 58.7728C48.0227 59.5782 48.9829 59.8509 50.0852 59.7355C50.5194 59.6894 50.9661 59.7523 51.4066 59.767C51.5799 59.9809 51.6237 60.2368 51.6279 60.5011C51.6425 61.4932 51.6467 62.4853 51.6258 63.4753C51.6237 63.7102 51.5987 63.9451 51.4317 64.1339Z" fill="#773DCD"/>
<path d="M34.7645 60.2741C31.6122 57.9291 28.46 55.5842 25.3099 53.2372C24.8088 52.8638 24.2974 52.501 23.8172 52.1046C22.8945 51.3411 22.7338 50.2253 23.3956 49.3213C24.0657 48.4026 25.2389 48.2222 26.2221 48.95C29.0257 51.0265 31.8252 53.1092 34.5975 55.2297C35.6726 56.0519 36.708 56.1652 37.9167 55.536C42.1315 53.342 46.363 51.1838 50.5966 49.0255C51.9828 48.3187 53.3397 48.8976 53.6591 50.3008C53.7238 50.5818 53.7802 50.8671 53.5986 51.1313C53.2687 51.7333 52.7301 52.092 52.1415 52.3856C47.0582 54.9235 42.0439 57.5936 36.9544 60.1189C36.2279 60.4775 35.516 60.5384 34.7645 60.2741Z" fill="#773DCD"/>
<path d="M51.4317 64.133C51.4254 62.6774 51.4171 61.2197 51.4108 59.7641C51.6175 59.7494 51.8241 59.7242 52.0308 59.7242C58.997 59.7221 65.9654 59.7221 72.9316 59.7242C73.3199 59.7242 73.7123 59.7137 74.0881 59.848C75.0171 60.1794 75.6371 61.1526 75.5369 62.1195C75.4242 63.1976 74.6455 64.0093 73.5787 64.1414C73.322 64.1729 73.0589 64.1603 72.8001 64.1603C65.9361 64.1603 59.0743 64.1603 52.2103 64.1603C51.9494 64.1603 51.6905 64.1435 51.4317 64.133Z" fill="#773DCD"/>
<path d="M62.4708 57.1066C61.4249 56.2026 60.5606 55.1203 59.5962 54.1387C58.7695 53.2955 58.3019 53.2431 57.3771 53.9499C56.1162 54.9168 54.8553 55.8817 53.6048 56.8654C53.3021 57.1045 52.9974 57.2198 52.6091 57.2135C51.5068 57.1926 50.4046 57.2072 49.2794 57.0227C50.6593 56.3137 52.0412 55.6069 53.4211 54.8938C55.5505 53.7968 56.3855 52.2279 56.1099 49.8473C56.0932 49.6963 56.0014 49.5034 56.1433 49.4048C56.9178 48.872 57.5003 47.9974 58.5733 47.9785C59.3164 48.1673 59.8321 48.6812 60.3206 49.2307C61.9906 51.0995 63.7191 52.9138 65.4706 54.7029C66.0384 55.2839 66.5207 55.9341 67.0843 56.5172C67.2242 56.6619 67.41 56.836 67.316 57.0583C67.2263 57.2681 66.9904 57.1758 66.8234 57.1716C65.3767 57.1359 63.9216 57.2702 62.4708 57.1066Z" fill="#773DCD"/>
<path d="M33.5871 45.2478C36.2216 43.6873 38.7392 42.1813 41.2715 40.7005C42.3653 40.0608 43.5365 40.3524 44.1106 41.3528C44.6867 42.3533 44.359 43.5006 43.2609 44.1634C41.3278 45.3317 39.378 46.4727 37.4366 47.6263C37.2111 47.7605 37.0295 47.8822 36.7477 47.6598C35.7331 46.8565 34.6893 46.0846 33.5871 45.2478Z" fill="#773DCD"/>
<path d="M34.7645 60.2746C35.9001 60.3983 36.8709 59.9558 37.8562 59.4482C42.5866 57.0131 47.3338 54.6073 52.0788 52.2036C52.6404 51.9184 53.0892 51.4863 53.5965 51.1318C53.5255 51.9498 52.9368 52.3295 52.3022 52.6546C47.8724 54.9261 43.4405 57.1934 39.0106 59.4608C38.3175 59.8152 37.637 60.1949 36.9314 60.52C36.1715 60.8702 35.4263 60.8828 34.7645 60.2746Z" fill="#773DCD"/>
<path d="M62.4708 57.1069C64.0406 57.1069 65.6126 57.1069 67.3139 57.1069C66.7879 56.4819 66.385 55.9491 65.9278 55.4709C64.2807 53.7384 62.5939 52.0416 60.9677 50.2902C60.2099 49.4743 59.5294 48.5871 58.5753 47.9809C59.2162 47.8362 59.7882 48.0292 60.2183 48.478C62.9384 51.3243 65.6376 54.1894 68.5018 57.2139C67.5143 57.2139 66.7273 57.2369 65.9445 57.2076C64.788 57.1677 63.6231 57.3439 62.4708 57.1069Z" fill="#773DCD"/>
<path d="M58.9302 57.2056C58.3833 57.2056 57.9324 57.2056 57.471 57.2056C58.1077 56.2596 58.281 56.2492 58.9302 57.2056Z" fill="#773DCD"/>
<path d="M10.5716 34.1084C13.156 34.121 15.4064 36.3821 15.4085 38.964C15.4085 41.3845 13.3648 43.1002 10.9745 42.687C8.6385 42.2822 6.88493 40.3064 6.81396 37.9971C6.74507 35.7654 8.35667 34.098 10.5716 34.1084Z" fill="#773DCD"/>
<path d="M57.7362 33.6891C49.6218 33.666 43.0876 27.036 43.1106 18.8539C43.1336 10.7557 49.7658 4.12783 57.8134 4.15929C65.9069 4.19285 72.5016 10.8816 72.4535 19.0092C72.4055 27.1262 65.8025 33.7143 57.7362 33.6891Z" fill="#773DCD"/>
<path d="M57.7341 31.1742C51.0163 31.1532 45.6032 25.6663 45.6157 18.8895C45.6282 12.1525 51.1415 6.63627 57.8217 6.67402C64.5208 6.71177 69.9798 12.2469 69.9568 18.9776C69.9318 25.7209 64.4435 31.1952 57.7341 31.1742Z" fill="#777777"/>
<path d="M60.807 22.4303C60.8258 21.6564 60.3895 21.1446 59.7298 20.7817C58.9156 20.335 58.0075 20.2175 57.1203 20.0287C56.5859 19.9134 56.0619 19.7729 55.5567 19.5631C53.6675 18.785 52.6675 17.4153 52.6592 15.5969C52.6508 13.791 53.7802 12.1801 55.6193 11.4796C56.2143 11.2531 56.6527 11.0958 56.5734 10.2798C56.5087 9.60657 57.137 9.12835 57.7988 9.13884C58.4522 9.14933 59.0263 9.62335 59.0033 10.3239C58.9803 11.0098 59.2559 11.2342 59.8529 11.4292C61.1744 11.8613 62.1117 12.7905 62.738 14.0301C63.1576 14.8627 62.9843 15.5696 62.3038 15.9324C61.6211 16.2974 60.9782 16.0352 60.521 15.2067C59.6651 13.6567 57.8718 13.1009 56.3103 13.9063C55.611 14.2671 55.1643 14.8187 55.1663 15.6346C55.1684 16.4547 55.7049 16.8868 56.3855 17.1972C57.1057 17.5244 57.8844 17.6104 58.6442 17.7761C59.4354 17.9481 60.2016 18.1872 60.9134 18.5773C62.548 19.4708 63.4081 20.8363 63.2995 22.7344C63.1972 24.5466 62.1013 25.6142 60.5398 26.2917C60.2308 26.4259 59.9072 26.5413 59.5795 26.6021C59.187 26.6755 59.0242 26.8265 59.0221 27.267C59.0137 28.1962 58.5002 28.752 57.7633 28.7436C57.0222 28.7331 56.5588 28.2025 56.5525 27.2355C56.5483 26.7909 56.3604 26.6839 55.9847 26.5748C54.229 26.061 52.964 24.9808 52.3586 23.2085C52.0621 22.3401 52.3544 21.6459 53.0683 21.4005C53.8073 21.1467 54.3647 21.4802 54.7133 22.3884C55.4941 24.4271 58.9803 25.0353 60.4646 23.3972C60.7068 23.1225 60.8153 22.8183 60.807 22.4303Z" fill="#773DCD"/>
</svg>
