<svg width="80" height="79" viewBox="0 0 80 79" fill="none" xmlns="http://www.w3.org/2000/svg">
<path d="M79.5595 76.3221C78.7871 78.0168 77.426 78.9502 75.5618 78.967C71.6831 79.0005 67.8044 78.9775 63.9257 78.9775C51.8219 78.9775 39.7161 78.9607 27.6123 79.0005C26.1531 79.0047 25.0154 78.4992 23.9946 77.5449C20.239 74.0296 16.4835 70.5164 12.7258 67.0032C9.44627 63.9367 6.17087 60.8619 2.88294 57.8038C1.72225 56.7257 0.505193 55.7064 0 54.1123V52.2267C0.167006 52.1785 0.12943 52.0254 0.167006 51.91C1.22541 48.5667 5.04149 47.5243 7.61338 49.9007C10.4692 52.5413 13.2999 55.2114 16.1411 57.8667C20.2808 61.7365 24.4225 65.6021 28.5517 69.4823C28.9212 69.8305 29.2907 69.9669 29.7939 69.9648C44.864 69.9543 59.9363 69.9627 75.0086 69.9459C76.5534 69.9438 77.9041 70.3234 78.8998 71.5483C80.071 72.9893 80.3361 74.6169 79.5595 76.3221Z" fill="#773DCD"/>
<path d="M39.1984 49.5037C39.808 49.9714 40.3633 50.3615 40.8727 50.802C41.2004 51.0851 41.4447 50.8964 41.714 50.7579C44.2107 49.4764 46.7158 48.2137 49.1958 46.9007C50.987 45.9527 52.7197 45.8835 54.4001 47.0958C54.7383 47.3391 54.9033 47.1797 55.1266 46.9972C55.9596 46.324 56.805 45.657 57.901 45.4787C59.6504 45.1955 61.12 45.7262 62.3392 47.0266C65.2138 50.0951 68.1259 53.1301 70.9755 56.2218C71.6226 56.9244 72.2489 57.2663 73.2384 57.239C75.3782 57.1803 77.0775 58.4073 77.7705 60.3034C78.8978 63.3845 76.66 66.6523 73.3658 66.6838C70.1133 66.7131 66.8588 66.6901 63.6063 66.6901C53.9764 66.6901 44.3464 66.6712 34.7164 66.7027C32.061 66.711 29.8023 65.8721 27.8462 64.0599C23.4602 59.9972 19.0366 55.9785 14.6402 51.9283C12.4754 49.9336 12.8011 47.2384 15.3625 45.7681C17.3916 44.6041 19.4249 43.4463 21.4666 42.3011C24.6105 40.5371 27.6625 40.4847 30.5016 42.9303C31.1822 43.5155 31.6727 43.5197 32.4326 43.0457C34.946 41.4747 37.5075 39.9771 40.0752 38.4963C42.8287 36.9085 46.1083 38.3621 46.793 41.4348C47.2064 43.2869 46.3734 45.2018 44.6407 46.2589C42.8663 47.3433 41.0668 48.3899 39.1984 49.5037Z" fill="#773DCD"/>
<path d="M38.9458 18.919C38.9667 8.4423 47.436 -0.0355444 57.8488 0.000112063C68.2282 0.0336711 76.637 8.55346 76.5869 18.984C76.5368 29.4481 68.0946 37.9218 57.7465 37.8945C47.3922 37.8673 38.925 29.3202 38.9458 18.919Z" fill="#444444"/>
<path d="M10.6319 31.598C14.5858 31.64 17.9384 35.0588 17.8946 39.0083C17.857 42.5823 15.0889 45.3257 11.5692 45.2775C7.59658 45.2251 4.25855 41.7601 4.32118 37.7582C4.37754 34.2051 7.08721 31.5624 10.6319 31.598Z" fill="#773DCD"/>
<path d="M20.4625 22.6655C20.4625 24.4189 20.4667 26.1724 20.4604 27.9258C20.4563 28.9284 20.0033 29.4633 19.1912 29.4507C18.4125 29.4402 17.9658 28.9137 17.9658 27.9636C17.9616 24.4042 17.9616 20.8449 17.9658 17.2876C17.9679 16.3039 18.4438 15.7376 19.2329 15.7502C20.0158 15.7628 20.4583 16.3249 20.4625 17.3275C20.4667 19.1061 20.4625 20.8847 20.4625 22.6655Z" fill="#773DCD"/>
<path d="M25.5916 28.7579C25.5916 26.9793 25.5853 25.1986 25.5937 23.42C25.5979 22.4887 26.0676 21.9245 26.817 21.9161C27.5518 21.9077 28.0842 22.4992 28.0883 23.3969C28.0988 26.9814 28.0967 30.5659 28.0883 34.1505C28.0863 35.0649 27.5852 35.6396 26.8421 35.6501C26.0885 35.6585 25.6 35.0964 25.5958 34.1756C25.5853 32.3697 25.5916 30.5638 25.5916 28.7579Z" fill="#773DCD"/>
<path d="M35.6975 22.6627C35.6975 24.4413 35.71 26.2199 35.6933 27.9986C35.685 28.9424 35.2069 29.4626 34.4283 29.4521C33.6767 29.4437 33.2154 28.9424 33.2049 28.0405C33.1861 26.3919 33.1987 24.7454 33.1987 23.0969C33.1987 21.1357 33.1882 19.1725 33.2049 17.2114C33.2133 16.2613 33.7644 15.6887 34.5431 15.7495C35.257 15.8062 35.6891 16.341 35.6954 17.2471C35.7058 19.053 35.6975 20.8568 35.6975 22.6627Z" fill="#773DCD"/>
<path d="M51.4315 64.1339C48.9076 64.1444 46.3837 64.159 43.8598 64.1632C40.7368 64.1695 37.6117 64.1486 34.4887 64.1716C32.6579 64.1842 31.0734 63.6074 29.7207 62.3678C25.2408 58.2527 20.7567 54.1438 16.2809 50.0244C15.4688 49.2756 15.5419 48.552 16.4855 48.0109C18.6065 46.7923 20.7253 45.5674 22.8693 44.3928C24.9777 43.2371 26.9693 43.2581 28.9546 44.8479C31.9273 47.2264 35.0023 49.4728 38.0313 51.78C38.2338 51.9331 38.4864 52.0421 38.595 52.3043C38.5532 52.34 38.5198 52.3777 38.476 52.4029C36.5283 53.5355 36.5283 53.5376 34.7455 52.1995C32.3886 50.4313 30.0547 48.6317 27.6707 46.9034C24.8253 44.8395 21.0489 46.4441 20.5416 49.9279C20.3016 51.5828 20.8756 53.0133 22.195 54.02C25.9255 56.8662 29.6789 59.6852 33.4616 62.4622C34.9668 63.5676 36.6159 63.5151 38.2547 62.672C40.8454 61.3401 43.4423 60.025 46.0246 58.6763C46.4881 58.4351 46.8451 58.3575 47.2459 58.7728C48.0225 59.5782 48.9827 59.8509 50.085 59.7355C50.5192 59.6894 50.9659 59.7523 51.4064 59.767C51.5797 59.9809 51.6235 60.2368 51.6277 60.5011C51.6423 61.4932 51.6465 62.4853 51.6256 63.4753C51.6235 63.7102 51.5985 63.9451 51.4315 64.1339Z" fill="white"/>
<path d="M34.7645 60.2741C31.6122 57.9291 28.46 55.5842 25.3098 53.2372C24.8088 52.8638 24.2974 52.501 23.8172 52.1046C22.8945 51.3411 22.7338 50.2253 23.3955 49.3213C24.0657 48.4026 25.2389 48.2222 26.2221 48.95C29.0257 51.0265 31.8252 53.1092 34.5975 55.2297C35.6726 56.0519 36.708 56.1652 37.9167 55.536C42.1315 53.342 46.363 51.1838 50.5966 49.0255C51.9828 48.3187 53.3397 48.8976 53.6591 50.3008C53.7238 50.5818 53.7802 50.8671 53.5986 51.1313C53.2687 51.7333 52.7301 52.092 52.1414 52.3856C47.0582 54.9235 42.0438 57.5936 36.9543 60.1189C36.2279 60.4775 35.516 60.5384 34.7645 60.2741Z" fill="white"/>
<path d="M51.4315 64.133C51.4253 62.6774 51.4169 61.2197 51.4106 59.7641C51.6173 59.7494 51.824 59.7242 52.0307 59.7242C58.9969 59.7221 65.9652 59.7221 72.9314 59.7242C73.3197 59.7242 73.7122 59.7137 74.088 59.848C75.0169 60.1794 75.6369 61.1526 75.5367 62.1195C75.424 63.1976 74.6453 64.0093 73.5786 64.1414C73.3218 64.1729 73.0588 64.1603 72.7999 64.1603C65.936 64.1603 59.0741 64.1603 52.2102 64.1603C51.9492 64.1603 51.6904 64.1435 51.4315 64.133Z" fill="white"/>
<path d="M62.4707 57.1066C61.4248 56.2026 60.5605 55.1203 59.5961 54.1387C58.7694 53.2955 58.3018 53.2431 57.377 53.9499C56.1161 54.9168 54.8552 55.8817 53.6047 56.8654C53.3021 57.1045 52.9973 57.2198 52.609 57.2135C51.5067 57.1926 50.4045 57.2072 49.2793 57.0227C50.6592 56.3137 52.0412 55.6069 53.421 54.8938C55.5504 53.7968 56.3854 52.2279 56.1098 49.8473C56.0931 49.6963 56.0013 49.5034 56.1432 49.4048C56.9177 48.872 57.5002 47.9974 58.5732 47.9785C59.3163 48.1673 59.832 48.6812 60.3205 49.2307C61.9905 51.0995 63.719 52.9138 65.4705 54.7029C66.0383 55.2839 66.5206 55.9341 67.0842 56.5172C67.2241 56.6619 67.4099 56.836 67.3159 57.0583C67.2262 57.2681 66.9903 57.1758 66.8233 57.1716C65.3766 57.1359 63.9215 57.2702 62.4707 57.1066Z" fill="white"/>
<path d="M33.5869 45.2478C36.2214 43.6873 38.739 42.1813 41.2713 40.7005C42.3652 40.0608 43.5363 40.3524 44.1104 41.3528C44.6865 42.3533 44.3588 43.5006 43.2607 44.1634C41.3276 45.3317 39.3778 46.4727 37.4364 47.6263C37.2109 47.7605 37.0293 47.8822 36.7475 47.6598C35.7329 46.8565 34.6892 46.0846 33.5869 45.2478Z" fill="white"/>
<path d="M34.7644 60.2746C35.9 60.3983 36.8708 59.9558 37.8561 59.4482C42.5865 57.0131 47.3337 54.6073 52.0787 52.2036C52.6403 51.9184 53.0891 51.4863 53.5964 51.1318C53.5254 51.9498 52.9367 52.3295 52.3021 52.6546C47.8723 54.9261 43.4404 57.1934 39.0105 59.4608C38.3175 59.8152 37.6369 60.1949 36.9313 60.52C36.1714 60.8702 35.4262 60.8828 34.7644 60.2746Z" fill="white"/>
<path d="M62.4706 57.1069C64.0405 57.1069 65.6124 57.1069 67.3138 57.1069C66.7877 56.4819 66.3848 55.9491 65.9276 55.4709C64.2805 53.7384 62.5938 52.0416 60.9676 50.2902C60.2098 49.4743 59.5292 48.5871 58.5752 47.9809C59.2161 47.8362 59.7881 48.0292 60.2181 48.478C62.9382 51.3243 65.6375 54.1894 68.5016 57.2139C67.5142 57.2139 66.7272 57.2369 65.9443 57.2076C64.7878 57.1677 63.6229 57.3439 62.4706 57.1069Z" fill="white"/>
<path d="M58.9302 57.2056C58.3832 57.2056 57.9323 57.2056 57.4709 57.2056C58.1077 56.2596 58.2809 56.2492 58.9302 57.2056Z" fill="white"/>
<path d="M41.4447 18.9039C41.4781 9.82622 48.8034 2.49567 57.8238 2.51665C66.8484 2.53762 74.1257 9.9185 74.0776 19.0025C74.0317 28.0865 66.6709 35.4401 57.686 35.3772C48.7261 35.3143 41.4113 27.8956 41.4447 18.9039Z" fill="#444444"/>
<path d="M10.5715 34.1084C13.1559 34.121 15.4063 36.3821 15.4084 38.964C15.4084 41.3845 13.3647 43.1002 10.9744 42.687C8.63843 42.2822 6.88487 40.3064 6.81389 37.9971C6.74501 35.7654 8.35661 34.098 10.5715 34.1084Z" fill="#773DCD"/>
<path d="M57.736 33.6891C49.6216 33.666 43.0874 27.036 43.1104 18.8539C43.1334 10.7557 49.7656 4.12783 57.8132 4.15929C65.9067 4.19285 72.5014 10.8816 72.4534 19.0092C72.4053 27.1262 65.8023 33.7143 57.736 33.6891Z" fill="white"/>
<path d="M57.7339 31.1742C51.0161 31.1532 45.603 25.6663 45.6155 18.8895C45.628 12.1525 51.1413 6.63627 57.8215 6.67402C64.5206 6.71177 69.9796 12.2469 69.9566 18.9776C69.9316 25.7209 64.4433 31.1952 57.7339 31.1742Z" fill="#444444"/>
<path d="M60.8068 22.4303C60.8256 21.6564 60.3893 21.1446 59.7296 20.7817C58.9155 20.335 58.0074 20.2175 57.1202 20.0287C56.5858 19.9134 56.0618 19.7729 55.5566 19.5631C53.6673 18.785 52.6674 17.4153 52.659 15.5969C52.6507 13.791 53.7801 12.1801 55.6192 11.4796C56.2142 11.2531 56.6526 11.0958 56.5732 10.2798C56.5085 9.60657 57.1369 9.12835 57.7986 9.13884C58.4521 9.14933 59.0261 9.62335 59.0032 10.3239C58.9802 11.0098 59.2558 11.2342 59.8528 11.4292C61.1742 11.8613 62.1116 12.7905 62.7378 14.0301C63.1574 14.8627 62.9842 15.5696 62.3036 15.9324C61.621 16.2974 60.978 16.0352 60.5208 15.2067C59.6649 13.6567 57.8717 13.1009 56.3102 13.9063C55.6109 14.2671 55.1641 14.8187 55.1662 15.6346C55.1683 16.4547 55.7048 16.8868 56.3854 17.1972C57.1056 17.5244 57.8842 17.6104 58.6441 17.7761C59.4353 17.9481 60.2014 18.1872 60.9133 18.5773C62.5479 19.4708 63.408 20.8363 63.2994 22.7344C63.1971 24.5466 62.1011 25.6142 60.5396 26.2917C60.2307 26.4259 59.9071 26.5413 59.5793 26.6021C59.1869 26.6755 59.024 26.8265 59.022 27.267C59.0136 28.1962 58.5001 28.752 57.7632 28.7436C57.0221 28.7331 56.5586 28.2025 56.5524 27.2355C56.5482 26.7909 56.3603 26.6839 55.9845 26.5748C54.2289 26.061 52.9638 24.9808 52.3584 23.2085C52.062 22.3401 52.3542 21.6459 53.0682 21.4005C53.8072 21.1467 54.3646 21.4802 54.7132 22.3884C55.494 24.4271 58.9802 25.0353 60.4645 23.3972C60.7066 23.1225 60.8152 22.8183 60.8068 22.4303Z" fill="white"/>
</svg>
